<svg width="534" height="191" viewBox="0 0 534 191" fill="none" xmlns="http://www.w3.org/2000/svg">
<path d="M373.991 115.753C370.607 126.616 366.109 137.202 359.342 146.529C336.549 177.96 295.028 190.043 257.271 177.506L251.317 190.27L250.202 190.987L244.314 188.734L250.228 174.762C234.425 167.713 220.602 156.41 211.894 141.884C210.662 141.746 211.16 141.897 210.95 142.539C199.685 178.614 159.633 189.628 124.118 181.22C76.0009 169.828 61.9683 113.261 108.682 90.4525C109.509 90.0497 110.44 89.7854 111.345 89.6217C109.102 87.784 106.204 86.777 103.673 85.0525C94.7941 78.9729 88.8532 67.2541 87.909 56.9199C81.8238 -9.73 195.265 -16.6278 204.314 45.3144C204.904 49.3675 204.839 53.1563 204.603 57.1968C223.343 13.2041 278.766 -8.44609 324.378 11.2782L329.375 0L335.932 2.25313L330.817 14.7901C352.194 26.232 366.633 46.8248 372.574 69.3561H346.503C342.017 59.0723 336.168 49.6066 327.224 42.3438C326.24 41.5508 320.759 37.3843 319.932 38.0137L267.802 154.497C278.425 157.115 288.431 157.883 299.29 156.083C322.28 152.281 340.627 136.547 347.735 115.363L373.978 115.3V115.753H373.991ZM142.256 25.3383C121.85 27.176 106.532 45.5661 117.679 64.3967C130.492 86.0595 170.61 83.0511 177.455 58.1786C183.265 37.0822 162.242 23.5383 142.256 25.3383ZM313.847 34.2249C282.779 21.4614 246.871 33.948 230.779 62.0177C212.55 93.7881 225.166 138.058 261.218 151.79L313.847 34.2249ZM196.852 97.728C196.498 89.6847 197.219 81.7421 198.727 73.8498C196.249 76.7575 194.268 80.219 191.475 82.8749C188.852 85.3672 185.285 87.3308 182.295 89.3826C187.619 91.2958 192.393 94.3671 196.852 97.7154V97.728ZM143.659 102.373C91.0827 104.236 96.0925 162.477 149.18 159.922C166.662 159.079 187.462 148.367 185.98 129.108C184.459 109.359 161.351 101.756 143.659 102.385V102.373Z" fill="#003CAC"/>
<path d="M70.9237 5.38721V181.068H44.6158V51.3309L17.0621 85.0901L0 72.2888L49.5469 5.38721H70.9237Z" fill="#003CAC"/>
<path d="M398.08 179.973H373.988V155.692H398.08V179.973Z" fill="#003CAC"/>
<path d="M411.022 121.883C411.022 116.558 412.032 111.737 414.091 107.458C416.137 103.166 419.075 99.5026 422.865 96.4817C426.681 93.4607 431.298 91.1446 436.753 89.5335C442.209 87.9223 448.32 87.1167 455.088 87.1167C461.855 87.1167 468.517 87.9978 474.13 89.7852C479.717 91.56 484.464 94.1278 488.359 97.4886C492.241 100.849 495.218 104.966 497.264 109.837C499.323 114.696 500.333 120.209 500.333 126.364V179.986H478.89V156.284C477.776 160.337 476.11 163.975 473.868 167.21C471.625 170.457 468.897 173.201 465.697 175.454C462.471 177.708 458.825 179.432 454.747 180.628C450.668 181.824 446.222 182.428 441.435 182.428C436.648 182.428 431.914 181.786 427.835 180.477C423.744 179.18 420.242 177.355 417.331 175.001C414.419 172.648 412.19 169.828 410.616 166.505C409.029 163.182 408.242 159.494 408.242 155.453C408.242 151.413 409.108 147.473 410.839 144.137C412.583 140.802 415.075 137.969 418.354 135.653C421.606 133.337 425.58 131.537 430.288 130.304C434.983 129.058 440.281 128.441 446.183 128.441H478.904V126.364C478.904 122.953 478.353 119.881 477.238 117.15C476.123 114.431 474.523 112.115 472.438 110.202C470.34 108.289 467.796 106.841 464.805 105.821C461.815 104.802 458.445 104.298 454.681 104.298C450.917 104.298 447.56 104.714 444.753 105.557C441.947 106.388 439.639 107.571 437.816 109.107C435.993 110.63 434.629 112.468 433.75 114.633C432.871 116.798 432.426 119.214 432.426 121.895H411.022V121.883ZM447.415 142.879C441.553 142.879 437.107 143.81 434.104 145.711C431.101 147.586 429.593 150.381 429.593 154.069C429.593 157.958 431.232 160.929 434.524 162.993C437.802 165.045 442.563 166.09 448.766 166.09C453.16 166.09 457.199 165.573 460.871 164.541C464.556 163.522 467.743 162.099 470.392 160.262C473.068 158.436 475.14 156.259 476.635 153.716C478.117 151.199 478.877 148.442 478.877 145.459V142.879H447.402H447.415Z" fill="#003CAC"/>
<path d="M533.999 79.6148H511.875V58.6191H533.999V79.6148ZM533.671 179.973H512.216V89.5714H533.671V179.973Z" fill="#003CAC"/>
</svg>
