<svg width="581" height="408" viewBox="0 0 581 408" fill="none" xmlns="http://www.w3.org/2000/svg">
<path d="M352.984 184.258C359.287 185.033 365.589 185.818 371.889 186.619C376.56 187.212 381.231 187.775 385.909 188.307C404.386 190.488 420.109 194.262 432.413 209.304C439.529 219.29 439.78 230.53 438.489 242.387C436.835 250.252 432.981 256.336 426.431 261.032C420.262 264.376 414.793 266.028 407.795 265.42C414.502 273.599 420.762 279.828 431.719 281.147C434.705 281.426 437.69 281.669 440.682 281.871C440.801 290.362 440.651 298.667 439.586 307.097C430.17 310.173 422.477 309.725 413.276 306C400.064 299.165 391.403 287.6 383.678 275.291C383.678 284.339 383.678 293.387 383.678 302.71C374.272 301.262 364.867 299.814 355.176 298.323C353.304 260.318 352.777 222.305 352.984 184.258Z" fill="#9EB3DE"/>
<path d="M140.317 157.936C149.723 157.936 159.128 157.936 168.819 157.936C169.181 173.861 169.542 189.786 169.915 206.194C175.703 206.194 181.491 206.194 187.455 206.194C200.795 206.999 200.795 206.999 206.091 208.387C206.057 207.699 206.024 207.011 205.99 206.302C205.278 191.264 204.835 176.28 204.994 161.226C208.694 161.565 212.394 161.909 216.094 162.254C217.658 162.397 217.658 162.397 219.254 162.543C220.78 162.686 220.78 162.686 222.337 162.832C223.267 162.919 224.197 163.005 225.155 163.094C228.324 163.455 231.448 163.982 234.592 164.516C234.882 175.826 235.168 187.135 235.45 198.444C235.581 203.699 235.713 208.953 235.848 214.207C236.993 258.882 236.993 258.882 236.785 278.581C232.674 278.244 228.563 277.899 224.452 277.552C223.287 277.457 222.121 277.362 220.92 277.263C219.796 277.168 218.673 277.072 217.515 276.974C216.482 276.888 215.449 276.802 214.384 276.713C211.572 276.387 211.572 276.387 207.187 275.29C207.187 259.727 207.187 244.164 207.187 228.129C196.972 227.453 196.972 227.453 186.756 226.784C185.479 226.698 184.202 226.611 182.886 226.522C181.583 226.436 180.279 226.35 178.937 226.261C175.852 225.977 172.934 225.519 169.915 224.839C169.994 226.13 170.073 227.42 170.155 228.75C170.985 243.188 171.099 257.537 171.011 272C161.606 272 152.2 272 142.509 272C141.842 265.326 141.231 258.842 141.066 252.168C141.044 251.342 141.021 250.517 140.997 249.666C140.925 246.943 140.86 244.219 140.797 241.496C140.762 240.081 140.762 240.081 140.726 238.637C140.079 211.74 140.224 184.837 140.317 157.936Z" fill="#9FB3DE"/>
<path d="M255.421 167.807C282.212 171.508 308.815 176.263 335.445 180.968C335.445 190.016 335.445 199.065 335.445 208.387C318.49 206.643 301.79 203.698 285.019 200.71C285.019 206.863 285.019 213.016 285.019 219.355C287.551 219.355 290.083 219.355 292.692 219.355C295.268 219.697 297.837 220.1 300.396 220.555C301.805 220.802 303.215 221.049 304.667 221.304C306.134 221.568 307.601 221.833 309.067 222.097C310.564 222.362 312.06 222.626 313.557 222.89C317.2 223.534 320.842 224.185 324.483 224.839C324.483 231.354 324.483 237.869 324.483 244.581C316.378 243.866 308.443 242.716 300.434 241.291C298.746 240.998 298.746 240.998 297.024 240.699C288.75 239.245 288.75 239.245 285.019 238C285.561 248.315 285.561 248.315 286.115 258.839C303.117 261.734 320.12 264.63 337.638 267.613C337.638 276.661 337.638 285.71 337.638 295.032C322.851 293.8 322.851 293.8 316.008 292.543C314.905 292.344 314.905 292.344 313.78 292.141C311.432 291.716 309.085 291.284 306.738 290.851C303.445 290.253 300.152 289.66 296.859 289.069C296.043 288.922 295.228 288.775 294.388 288.624C285.564 287.043 276.713 285.642 267.851 284.29C266.812 284.13 265.774 283.969 264.704 283.803C263.805 283.667 262.905 283.531 261.979 283.391C259.805 282.968 259.805 282.968 257.613 281.871C257.325 269.752 257.039 257.633 256.755 245.514C256.624 239.884 256.492 234.255 256.357 228.626C256.227 223.179 256.1 217.731 255.973 212.284C255.925 210.221 255.876 208.158 255.827 206.094C255.519 193.329 255.355 180.576 255.421 167.807Z" fill="#9EB3DE"/>
<path d="M534.959 188.645C534.959 197.693 534.959 206.742 534.959 216.064C518.058 219.139 501.66 220.84 484.532 221.548C484.532 227.701 484.532 233.854 484.532 240.193C497.555 239.108 510.579 238.022 523.996 236.903C523.996 243.056 523.996 249.209 523.996 255.548C514.03 257.626 504.576 259.021 494.398 258.907C491.504 258.884 488.61 258.862 485.628 258.839C485.628 266.077 485.628 273.316 485.628 280.774C491.38 280.17 497.132 279.565 502.884 278.96C504.837 278.755 506.79 278.549 508.743 278.344C511.565 278.048 514.387 277.751 517.209 277.454C518.5 277.318 518.5 277.318 519.816 277.18C521.066 277.048 521.066 277.048 522.341 276.914C523.059 276.839 523.777 276.763 524.517 276.685C528.73 276.231 532.94 275.758 537.151 275.29C537.151 284.339 537.151 293.387 537.151 302.71C511.099 308.683 484.797 308.512 458.223 308.193C457.34 295.561 456.81 282.945 456.51 270.286C456.487 269.348 456.463 268.411 456.44 267.444C455.847 243.009 455.925 218.57 456.03 194.129C457.6 194.105 457.6 194.105 459.201 194.08C482.222 193.703 505.023 193.013 527.773 189.091C530.574 188.645 530.574 188.645 534.959 188.645Z" fill="#9EB3DE"/>
<path d="M127.164 157.936C127.164 166.622 127.164 175.309 127.164 184.258C123.713 185.121 121.043 185.545 117.555 185.702C116.58 185.748 115.605 185.794 114.6 185.841C113.591 185.884 112.582 185.927 111.542 185.972C110.517 186.019 109.491 186.067 108.434 186.115C105.907 186.231 103.381 186.343 100.854 186.452C100.926 187.618 100.998 188.785 101.072 189.987C101.839 202.812 102.276 215.628 102.567 228.472C102.602 229.939 102.602 229.939 102.637 231.436C102.975 245.69 103.206 259.936 103.047 274.194C99.1193 274.747 95.1909 275.293 91.2623 275.839C90.1488 275.996 89.0353 276.153 87.888 276.314C86.814 276.463 85.7401 276.611 84.6336 276.764C83.1525 276.971 83.1525 276.971 81.6414 277.182C78.9298 277.484 78.9298 277.484 74.5449 277.484C73.7339 248.595 73.2807 219.739 73.4486 190.839C72.7353 191.005 72.0219 191.171 71.287 191.342C68.0574 192.092 64.8266 192.837 61.5957 193.581C60.473 193.842 59.3503 194.104 58.1935 194.373C57.116 194.621 56.0385 194.868 54.9284 195.123C53.4387 195.468 53.4387 195.468 51.9189 195.819C49.3316 196.323 49.3316 196.323 46.043 196.323C46.043 187.636 46.043 178.95 46.043 170C55.9307 166.29 55.9307 166.29 61.1418 165.305C62.3032 165.084 63.4646 164.864 64.6612 164.637C65.8879 164.416 67.1147 164.195 68.3786 163.968C69.6661 163.734 70.9536 163.499 72.2801 163.258C81.3639 161.654 90.4613 160.324 99.621 159.238C100.745 159.102 101.869 158.967 103.027 158.827C111.106 157.935 119.037 157.831 127.164 157.936Z" fill="#9EB3DE"/>
<path d="M120.447 61.282C121.71 61.3018 122.974 61.3216 124.275 61.342C125.228 61.3675 126.18 61.3929 127.161 61.4191C127.321 68.2226 127.476 75.0261 127.63 81.8297C127.682 84.1343 127.735 86.4389 127.789 88.7434C128.132 103.402 128.335 118.047 128.258 132.709C127.172 132.89 126.087 133.071 124.969 133.258C124.358 133.36 123.748 133.461 123.119 133.566C119.367 133.921 115.583 133.806 111.814 133.806C110.729 115.89 110.729 115.89 109.622 97.6127C108.685 100.292 107.748 102.971 106.783 105.731C105.876 108.316 104.969 110.9 104.062 113.485C103.43 115.285 102.799 117.087 102.17 118.888C101.267 121.473 100.36 124.056 99.4516 126.639C99.1696 127.449 98.8875 128.259 98.5968 129.093C96.5918 134.778 96.5918 134.778 95.3708 136C93.7053 136.079 92.0364 136.092 90.3692 136.068C89.0105 136.053 89.0105 136.053 87.6244 136.038C86.5752 136.019 86.5752 136.019 85.5047 136C79.9521 125.193 74.9537 114.26 70.1576 103.097C69.7958 115.04 69.4341 126.984 69.0613 139.29C63.9968 140.376 58.9322 141.462 53.7142 142.58C52.311 138.369 52.3612 134.336 52.2711 129.942C52.2483 129.009 52.2254 128.077 52.2019 127.116C52.1296 124.091 52.0652 121.065 52.0013 118.04C51.9544 115.982 51.9074 113.923 51.8603 111.865C51.5603 98.3389 51.3709 84.8192 51.5217 71.2901C53.5745 70.7318 55.6306 70.1858 57.688 69.6449C58.8326 69.3396 59.9772 69.0342 61.1565 68.7195C64.6292 68.0094 67.7211 67.8724 71.2538 67.9998C76.1345 78.1868 80.9951 88.3819 85.5733 98.7095C85.9005 99.4369 86.2277 100.164 86.5648 100.914C87.935 104.039 88.7934 106.223 88.7934 109.677C89.5169 109.677 90.2404 109.677 90.9859 109.677C91.2176 108.432 91.4494 107.186 91.6881 105.903C93.3809 98.3186 95.9995 91.0273 98.6027 83.7185C99.1921 82.0495 99.7701 80.3763 100.337 78.6995C101.163 76.2559 102.023 73.8263 102.89 71.3972C103.137 70.6478 103.384 69.8984 103.638 69.1263C104.987 65.476 105.867 63.8547 109.366 62.0379C113.143 61.3784 116.614 61.2038 120.447 61.282Z" fill="#FDA212"/>
<path d="M450.81 100.329C459.018 107.103 464.111 115.609 465.896 126.129C466.827 138.687 466.549 151.043 458.222 161.226C451.916 167.627 446.651 170.045 437.599 170.411C427.891 170.207 421.117 166.595 414.069 160.048C411.131 156.762 409.344 153.263 407.796 149.161C407.404 148.231 407.013 147.301 406.609 146.342C405.209 141.106 405.242 136.119 405.261 130.722C405.243 129.683 405.225 128.645 405.207 127.575C405.2 117.105 407.299 109.317 414.557 101.627C424.267 92.8239 440.195 93.3231 450.81 100.329Z" fill="#FE6222"/>
<path d="M531.671 92.1289C532.607 103.377 532.965 114.644 533.082 125.928C533.11 128.141 533.159 130.354 533.209 132.566C533.273 143.236 532.205 152.917 524.888 161.157C517.58 167.601 510.438 169.616 500.759 169.259C494.254 168.505 489.246 165.813 484.534 161.226C475.505 149.353 477.673 131.135 477.819 116.943C477.83 115.058 477.84 113.173 477.849 111.288C477.873 106.73 477.911 102.171 477.956 97.6128C483.382 97.6128 488.809 97.6128 494.4 97.6128C494.437 99.0459 494.475 100.479 494.514 101.956C494.661 107.281 494.843 112.605 495.035 117.93C495.114 120.232 495.182 122.536 495.242 124.839C495.329 128.154 495.45 131.466 495.577 134.779C495.597 135.806 495.616 136.833 495.637 137.892C495.86 142.859 496.106 145.22 499.152 149.302C502.011 151.719 502.011 151.719 505.978 151.423C509.975 150.187 511.575 149.117 514.132 145.871C515.421 143.291 515.36 141.772 515.352 138.898C515.352 137.91 515.352 136.922 515.352 135.904C515.346 134.836 515.341 133.767 515.335 132.667C515.333 131.574 515.332 130.482 515.33 129.356C515.324 125.859 515.31 122.361 515.296 118.863C515.291 116.495 515.286 114.127 515.281 111.759C515.269 105.947 515.251 100.135 515.228 94.3225C517.557 93.9549 519.887 93.5897 522.216 93.2257C523.514 93.0221 524.811 92.8185 526.147 92.6087C529.479 92.1289 529.479 92.1289 531.671 92.1289Z" fill="#FE6222"/>
<path d="M203.899 64.7095C228.673 66.9673 228.673 66.9673 239.664 68.6167C241.114 68.8235 241.114 68.8235 242.593 69.0344C246.296 69.5755 249.669 70.1027 253.229 71.2901C253.229 76.7191 253.229 82.1482 253.229 87.7417C242.222 86.502 231.28 85.1156 220.343 83.3546C220.343 87.6979 220.343 92.0411 220.343 96.5159C222.468 96.6516 224.593 96.7874 226.783 96.9272C233.204 97.4127 239.277 98.3998 245.556 99.8062C245.556 103.426 245.556 107.045 245.556 110.774C242.358 110.435 239.161 110.092 235.964 109.746C235.06 109.65 234.155 109.555 233.223 109.457C232.347 109.361 231.471 109.266 230.568 109.167C229.765 109.081 228.961 108.995 228.133 108.906C225.824 108.58 225.824 108.58 221.439 107.484C221.439 112.189 221.439 116.894 221.439 121.742C237.718 123.913 237.718 123.913 254.326 126.129C254.326 131.558 254.326 136.987 254.326 142.58C246.677 142.034 239.249 141.221 231.703 139.881C226.397 139.03 221.066 138.441 215.724 137.862C212.061 137.455 208.554 136.947 204.996 136C203.629 121.044 203.774 106.105 203.831 91.1006C203.836 88.5336 203.841 85.9666 203.846 83.3996C203.858 77.1695 203.876 70.9395 203.899 64.7095Z" fill="#FDA212"/>
<path d="M141.414 61.4195C158.023 61.1665 174.268 61.3887 190.744 63.613C190.744 68.6801 190.744 73.7472 190.744 78.9678C180.109 79.1198 169.563 78.525 158.953 77.8711C158.953 82.2143 158.953 86.5575 158.953 91.0324C160.039 91.0196 161.124 91.0069 162.242 90.9938C169.628 90.934 176.855 90.9348 184.167 92.1291C184.167 95.7485 184.167 99.3678 184.167 103.097C175.846 102.735 167.526 102.373 158.953 102C158.953 107.067 158.953 112.134 158.953 117.355C160.723 117.336 160.723 117.336 162.529 117.316C172.382 117.244 182.021 117.548 191.84 118.452C191.84 123.881 191.84 129.31 191.84 134.903C175.394 134.234 158.951 133.515 142.51 132.71C141.822 108.942 141.2 85.1994 141.414 61.4195Z" fill="#FDA111"/>
<path d="M339.832 86.6451C342.422 86.5325 344.919 86.5621 347.506 86.6451C348.378 86.6027 349.249 86.5603 350.148 86.5166C353.585 86.6761 355.478 87.0768 358.468 88.8387C364.437 96.5333 367.884 107.006 370.526 116.258C371.25 116.258 371.973 116.258 372.719 116.258C372.987 115.362 373.256 114.465 373.532 113.542C375.159 108.984 377.234 104.793 379.433 100.492C381.536 96.3523 381.536 96.3523 383.681 92.129C389.831 92.8529 395.981 93.5767 402.317 94.3225C396.433 107.077 390.205 119.558 383.576 131.94C381.627 135.609 381.29 138.018 381.142 142.212C381.073 144.057 381.073 144.057 381.003 145.939C380.96 147.229 380.916 148.518 380.872 149.847C380.801 151.794 380.801 151.794 380.729 153.78C380.612 156.993 380.502 160.206 380.392 163.419C374.966 162.695 369.54 161.972 363.949 161.226C364.137 159.86 364.325 158.494 364.519 157.087C366.203 133.902 354.103 115.129 343.314 95.4378C342.628 94.1809 342.628 94.1809 341.928 92.8986C341.522 92.1645 341.117 91.4304 340.699 90.6741C339.832 88.8387 339.832 88.8387 339.832 86.6451Z" fill="#FE6121"/>
<path d="M260.902 72.3872C267.536 73.4581 274.168 74.5315 280.801 75.6071C283.057 75.9727 285.313 76.3375 287.57 76.7017C290.814 77.2254 294.057 77.7515 297.3 78.2781C298.309 78.4404 299.317 78.6026 300.356 78.7698C301.3 78.9234 302.243 79.0771 303.215 79.2354C304.043 79.3693 304.871 79.5033 305.723 79.6413C307.977 80.053 310.203 80.6056 312.425 81.1614C312.425 86.2285 312.425 91.2956 312.425 96.5162C298.585 95.5566 298.585 95.5566 294.885 94.3227C295.064 95.3612 295.243 96.3998 295.427 97.4698C296.165 102.668 296.119 107.825 296.089 113.066C296.087 114.102 296.086 115.138 296.084 116.206C296.078 119.491 296.064 122.776 296.05 126.061C296.045 128.298 296.04 130.535 296.035 132.772C296.023 138.235 296.004 143.698 295.982 149.161C293.857 149.007 291.733 148.845 289.61 148.682C287.836 148.548 287.836 148.548 286.026 148.412C282.827 148.065 282.827 148.065 279.538 146.968C278.386 128.312 278.329 109.714 278.442 91.0324C272.654 90.3085 266.866 89.5846 260.902 88.8388C260.902 83.4098 260.902 77.9808 260.902 72.3872Z" fill="#FDA213"/>
<path d="M441.505 112.899C446.57 117.545 448.13 122.524 448.741 129.312C448.789 130.856 448.82 132.399 448.836 133.943C448.847 134.677 448.858 135.41 448.869 136.166C448.753 142.836 447.089 147.946 442.669 153C439.234 154.833 436.849 155.149 433.005 154.422C428.799 152.743 426.501 149.691 424.239 145.871C421.107 137.61 420.169 126.678 423.417 118.314C427.832 111.057 433.701 110.238 441.505 112.899Z" fill="#FFFDFC"/>
<path d="M381.488 216.064C398.536 216.064 398.536 216.064 405.28 222.131C409.138 226.657 410.365 229.804 410.311 235.764C409.812 239.241 408.068 241.092 405.605 243.484C403.036 244.769 401.346 244.837 398.48 244.923C397.609 244.964 396.739 245.005 395.842 245.048C392.451 244.581 392.451 244.581 381.488 240.193C381.488 232.231 381.488 224.268 381.488 216.064Z" fill="#FEFEFE"/>
<path d="M150.182 297.226C152.854 298.322 152.854 298.322 154.567 299.419C154.567 301.229 154.567 303.039 154.567 304.903C150.949 304.541 147.332 304.179 143.605 303.806C145.001 306.601 146.22 306.898 149.017 308.193C151.811 309.492 153.457 310.373 155.663 312.58C155.458 316.419 155.458 316.419 154.567 320.258C150.981 322.65 149.882 322.724 145.729 322.657C144.766 322.65 143.804 322.643 142.812 322.636C140.316 322.451 140.316 322.451 138.123 321.355C138.123 319.545 138.123 317.735 138.123 315.871C141.741 316.233 145.359 316.595 149.086 316.968C148.356 313.613 148.356 313.613 146.003 312.435C145.211 312.076 144.42 311.717 143.605 311.347C139.285 309.356 139.285 309.356 138.123 308.193C137.486 301.307 137.486 301.307 139.836 298.391C143.477 296.803 146.247 296.874 150.182 297.226Z" fill="#FE6629"/>
<path d="M82.8321 304.012C86.6003 304.903 86.6003 304.903 88.7928 308.193C88.9298 311.141 88.9298 311.141 88.7928 313.677C85.537 313.677 82.2812 313.677 78.9268 313.677C80.012 315.306 80.012 315.306 81.1192 316.967C85.0476 317.242 85.0476 317.242 88.7928 316.967C88.431 318.777 88.0693 320.587 87.6966 322.451C86.1218 322.541 84.5455 322.604 82.9691 322.657C81.6528 322.714 81.6528 322.714 80.3099 322.773C77.8305 322.451 77.8305 322.451 75.9207 321.063C73.5601 317.807 73.4377 314.329 73.4456 310.387C75.0183 305.404 77.5376 303.733 82.8321 304.012Z" fill="#FE6E34"/>
<path d="M160.051 298.323C165.477 298.323 170.903 298.323 176.494 298.323C176.494 299.77 176.494 301.218 176.494 302.71C172.515 302.71 168.536 302.71 164.436 302.71C164.436 304.881 164.436 307.053 164.436 309.29C167.33 309.29 170.224 309.29 173.205 309.29C173.205 310.376 173.205 311.462 173.205 312.581C170.311 312.581 167.417 312.581 164.436 312.581C164.436 315.838 164.436 319.096 164.436 322.452C162.989 322.452 161.542 322.452 160.051 322.452C160.051 314.489 160.051 306.527 160.051 298.323Z" fill="#FE6324"/>
<path d="M99.2778 304.149C103.046 304.903 103.046 304.903 105.239 306C105.239 307.448 105.239 308.895 105.239 310.387C102.21 309.814 99.4 309.171 96.4688 308.193C96.4688 308.917 96.4688 309.641 96.4688 310.387C98.334 310.896 98.334 310.896 100.237 311.415C104.142 312.581 104.142 312.581 105.239 313.677C105.444 316.899 105.444 316.899 105.239 320.258C103.046 322.452 103.046 322.452 100.712 322.704C99.832 322.689 98.9516 322.673 98.0446 322.657C97.1614 322.65 96.2782 322.643 95.3682 322.636C93.1801 322.452 93.1801 322.452 92.0838 321.355C92.0393 319.527 92.037 317.698 92.0838 315.871C94.6161 316.233 97.1484 316.595 99.7574 316.968C95.959 314.796 95.959 314.796 92.0838 312.581C91.8783 309.427 91.8783 309.427 92.0838 306C95.3725 303.806 95.3725 303.806 99.2778 304.149Z" fill="#FE692C"/>
<path d="M112.909 298.323C113.271 298.323 113.633 298.323 114.006 298.323C114.006 300.494 114.006 302.666 114.006 304.903C115.453 304.903 116.9 304.903 118.391 304.903C118.391 305.627 118.391 306.351 118.391 307.097C116.944 307.097 115.496 307.097 114.006 307.097C114.006 310.716 114.006 314.336 114.006 318.065C115.453 318.065 116.9 318.065 118.391 318.065C118.391 319.512 118.391 320.96 118.391 322.452C114.691 322.657 114.691 322.657 110.717 322.452C108.295 318.817 108.278 317.687 108.387 313.472C108.407 312.484 108.427 311.495 108.447 310.477C108.473 309.724 108.498 308.97 108.524 308.194C107.801 308.194 107.077 308.194 106.332 308.194C106.332 307.108 106.332 306.022 106.332 304.903C107.417 304.903 108.503 304.903 109.621 304.903C109.756 304.225 109.892 303.546 110.032 302.847C110.717 300.516 110.717 300.516 112.909 298.323Z" fill="#FE682C"/>
<path d="M122.776 316.968C124.946 317.511 124.946 317.511 127.161 318.065C127.161 319.512 127.161 320.96 127.161 322.452C125.352 322.452 123.543 322.452 121.68 322.452C122.041 320.642 122.403 318.832 122.776 316.968Z" fill="#FE672A"/>
</svg>
