<svg width="948" height="191" viewBox="0 0 948 191" fill="none" xmlns="http://www.w3.org/2000/svg">
<g clip-path="url(#clip0_5629_1329)">
<path d="M31.06 125.96C31.06 136.94 33.47 145.37 36.62 150.47C40.75 157.15 46.91 159.98 53.19 159.98C61.29 159.98 68.7 157.97 82.98 138.22C94.42 122.39 107.9 100.17 116.97 86.24L132.33 62.64C143 46.25 155.35 28.03 169.51 15.68C181.07 5.6 193.54 0 206.09 0C227.16 0 247.23 12.21 262.59 35.11C279.4 60.19 287.56 91.78 287.56 124.38C287.56 143.76 283.74 158 277.24 169.25C270.96 180.13 258.72 191 238.13 191V159.98C255.76 159.98 260.16 143.78 260.16 125.24C260.16 98.82 254 69.5 240.43 48.55C230.8 33.69 218.32 24.61 204.59 24.61C189.74 24.61 177.79 35.81 164.36 55.78C157.22 66.39 149.89 79.32 141.66 93.91L132.6 109.96C114.4 142.23 109.79 149.58 100.69 161.71C84.74 182.95 71.12 191 53.19 191C31.92 191 18.47 181.79 10.14 167.91C3.34 156.6 0 141.76 0 124.85L31.06 125.96Z" fill="#0081FB"/>
<path d="M24.4883 37.3C38.7283 15.35 59.2783 0 82.8483 0C96.4983 0 110.068 4.04 124.238 15.61C139.738 28.26 156.258 49.09 176.868 83.42L184.258 95.74C202.098 125.46 212.248 140.75 218.188 147.96C225.828 157.22 231.178 159.98 238.128 159.98C255.758 159.98 260.158 143.78 260.158 125.24L287.558 124.38C287.558 143.76 283.738 158 277.238 169.25C270.958 180.13 258.718 191 238.128 191C225.328 191 213.988 188.22 201.448 176.39C191.808 167.31 180.538 151.18 171.868 136.68L146.078 93.6C133.138 71.98 121.268 55.86 114.398 48.56C107.008 40.71 97.5083 31.23 82.3483 31.23C70.0783 31.23 59.6583 39.84 50.9383 53.01L24.4883 37.3Z" fill="url(#paint0_linear_5629_1329)"/>
<path d="M82.35 31.23C70.08 31.23 59.66 39.84 50.94 53.01C38.61 71.62 31.06 99.34 31.06 125.96C31.06 136.94 33.47 145.37 36.62 150.47L10.14 167.91C3.34 156.6 0 141.76 0 124.85C0 94.1 8.44 62.05 24.49 37.3C38.73 15.35 59.28 0 82.85 0L82.35 31.23Z" fill="url(#paint1_linear_5629_1329)"/>
<path d="M347.941 6.04004H383.871L444.961 116.56L506.061 6.04004H541.211V187.64H511.901V48.46L458.321 144.84H430.821L377.251 48.46V187.64H347.941V6.04004ZM633.051 73.75C612.031 73.75 599.371 89.57 596.341 109.16H667.681C666.211 88.98 654.571 73.75 633.051 73.75ZM567.281 120.32C567.281 79.1 593.921 49.1 633.561 49.1C672.551 49.1 695.831 78.72 695.831 122.52V130.57H596.341C599.871 151.88 614.011 166.24 636.811 166.24C655.001 166.24 666.371 160.69 677.151 150.54L692.721 169.61C678.051 183.1 659.391 190.88 635.771 190.88C592.861 190.88 567.281 159.59 567.281 120.32ZM731.371 76.35H704.391V52.35H731.371V12.66H759.651V52.35H800.641V76.35H759.651V137.18C759.651 157.95 766.291 165.33 782.611 165.33C790.061 165.33 794.331 164.69 800.641 163.64V187.38C792.781 189.6 785.281 190.62 777.161 190.62C746.631 190.62 731.371 173.94 731.371 140.55V76.35ZM919.721 99.69C914.041 85.35 901.371 74.79 882.751 74.79C858.551 74.79 843.061 91.96 843.061 119.93C843.061 147.2 857.321 165.2 881.591 165.2C900.671 165.2 914.291 154.1 919.721 140.29V99.69ZM948.001 187.64H920.241V168.7C912.481 179.85 898.361 190.88 875.491 190.88C838.711 190.88 814.131 160.09 814.131 119.93C814.131 79.39 839.301 49.1 877.051 49.1C895.711 49.1 910.351 56.56 920.241 69.73V52.35H948.001V187.64Z" fill="#192830"/>
</g>
<defs>
<linearGradient id="paint0_linear_5629_1329" x1="60.9983" y1="117" x2="258.998" y2="127" gradientUnits="userSpaceOnUse">
<stop stop-color="#0064E1"/>
<stop offset="0.4" stop-color="#0064E1"/>
<stop offset="0.83" stop-color="#0073EE"/>
<stop offset="1" stop-color="#0082FB"/>
</linearGradient>
<linearGradient id="paint1_linear_5629_1329" x1="45" y1="139" x2="45" y2="66" gradientUnits="userSpaceOnUse">
<stop stop-color="#0082FB"/>
<stop offset="1" stop-color="#0064E0"/>
</linearGradient>
<clipPath id="clip0_5629_1329">
<rect width="948" height="191" fill="white"/>
</clipPath>
</defs>
</svg>
