<svg width="948" height="114" viewBox="0 0 948 114" fill="none" xmlns="http://www.w3.org/2000/svg">
<path fill-rule="evenodd" clip-rule="evenodd" d="M398.524 1.05033C398.321 1.09862 397.66 1.24591 397.051 1.38112L395.945 1.62499V55.9738C395.945 102.927 396.025 110.4 396.527 110.904C397.186 111.564 426.75 111.752 426.344 111.095C426.231 110.912 427.267 110.663 428.645 110.545C430.026 110.429 431.427 110.245 431.76 110.139C432.091 110.03 432.772 109.813 433.269 109.654C433.767 109.494 434.175 109.205 434.175 109.009C434.175 108.813 434.537 108.654 434.979 108.654C435.423 108.654 435.785 108.473 435.785 108.251C435.785 108.031 436.147 107.85 436.589 107.85C437.031 107.85 437.393 107.669 437.393 107.447C437.393 107.225 437.637 107.044 437.934 107.044C438.231 107.044 439.151 106.457 439.977 105.737C443.427 102.731 444.381 101.637 444.898 100.102C445.028 99.7155 445.294 99.3992 445.489 99.3992C445.685 99.3992 445.844 99.037 445.844 98.5927C445.844 98.1509 446.025 97.7887 446.247 97.7887C446.469 97.7887 446.651 97.4265 446.651 96.9846C446.651 96.5404 446.791 96.1782 446.964 96.1782C447.138 96.1782 447.319 95.7001 447.368 95.1134C447.416 94.5266 447.616 93.8482 447.812 93.6043C448.249 93.0634 448.64 90.0549 448.746 86.4476C448.79 84.9675 448.969 83.8472 449.147 83.9558C449.323 84.0645 449.466 82.9779 449.466 81.5389C449.466 80.0998 449.309 78.8249 449.116 78.7066C448.923 78.5859 448.684 76.5384 448.585 74.1552C448.483 71.7697 448.201 69.4589 447.954 69.0147C447.708 68.5728 447.278 67.3631 446.998 66.3249C446.718 65.289 446.344 64.5285 446.168 64.6395C445.989 64.7482 445.844 64.4536 445.844 63.9852C445.844 63.5168 445.663 63.2439 445.443 63.3816C445.221 63.5192 445.04 63.3864 445.04 63.087C445.04 62.6065 443.927 61.3437 441.203 58.7336C440.752 58.3014 440.163 57.9489 439.895 57.9489C439.627 57.9489 439.407 57.7678 439.407 57.5456C439.407 57.3259 439.134 57.1448 438.803 57.1448C438.47 57.1448 438.2 56.9782 438.2 56.773C438.2 56.5702 437.659 56.2852 436.997 56.138C436.336 55.9931 435.691 55.7082 435.563 55.5029C435.437 55.3001 434.802 55.1311 434.151 55.1311C433.501 55.1311 432.967 54.95 432.967 54.7303C432.967 54.5081 433.238 54.3271 433.571 54.3271C433.902 54.3271 434.175 54.146 434.175 53.9238C434.175 53.7041 434.411 53.523 434.703 53.523C434.993 53.523 435.619 53.1608 436.094 52.7166C436.57 52.2747 437.142 51.9125 437.367 51.9125C438.016 51.9125 441.418 48.3342 441.418 47.6533C441.418 47.3128 441.568 47.1293 441.754 47.2428C441.937 47.3563 442.333 46.8227 442.633 46.0597C442.932 45.2943 443.304 44.6689 443.459 44.6689C443.71 44.6689 443.929 44.1594 444.497 42.2544C444.596 41.9212 444.784 40.8805 444.912 39.9413C445.04 38.9996 445.303 38.2293 445.494 38.2293C445.687 38.2293 445.844 34.5182 445.844 29.9813C445.844 25.442 445.69 21.7308 445.499 21.7308C445.308 21.7308 445.038 20.8713 444.9 19.8185C444.535 17.0563 444.424 16.5565 444.113 16.2426C443.958 16.0881 443.833 15.6317 443.833 15.2261C443.833 14.818 443.652 14.4872 443.43 14.4872C443.21 14.4872 443.029 14.125 443.029 13.6832C443.029 13.2389 442.848 12.8767 442.626 12.8767C442.403 12.8767 442.222 12.6063 442.222 12.2731C442.222 11.9423 442.041 11.6695 441.821 11.6695C441.599 11.6695 441.418 11.3314 441.418 10.9161C441.418 9.87304 436.621 4.95222 435.276 4.6166C434.67 4.46448 434.175 4.22303 434.175 4.07816C434.175 3.57594 429.568 2.01132 428.09 2.01132C427.542 2.01132 426.919 1.84954 426.709 1.65155C426.393 1.34973 399.661 0.779903 398.524 1.05033ZM447.08 1.2773C446.001 1.6757 446.46 3.65561 448.655 8.06214C448.824 8.40018 449.089 9.25975 449.246 9.96962C449.401 10.6771 449.695 11.3628 449.901 11.4884C450.103 11.6139 450.272 12.1451 450.272 12.6667C450.272 13.1882 450.408 13.6759 450.574 13.7484C451.057 13.9633 452.581 17.3074 453.341 19.8185C453.725 21.091 454.189 22.1341 454.37 22.1341C454.551 22.1341 454.698 22.3997 454.698 22.7256C454.698 23.0492 455.039 23.9232 455.454 24.6645C455.872 25.4033 456.345 26.6203 456.509 27.3639C456.673 28.11 457.147 29.3245 457.564 30.0658C457.98 30.8071 458.32 31.6787 458.32 32.0047C458.32 32.3306 458.501 32.5962 458.723 32.5962C458.943 32.5962 459.124 33.0502 459.124 33.6031C459.124 34.156 459.305 34.6075 459.527 34.6075C459.749 34.6075 459.93 34.9263 459.933 35.3126C459.933 35.6989 460.206 36.5343 460.537 37.1694C460.867 37.8044 461.138 38.664 461.138 39.0817C461.138 39.4994 461.273 39.8423 461.44 39.8423C461.848 39.8471 462.746 41.8367 462.746 42.7373C462.746 43.1357 462.925 43.4616 463.144 43.4616C463.364 43.4616 463.659 44.186 463.799 45.0721C463.941 45.9559 464.214 46.6802 464.407 46.6802C464.6 46.6802 464.76 47.0424 464.76 47.4867C464.76 47.9285 464.902 48.2907 465.076 48.2907C465.25 48.2907 465.424 48.6964 465.46 49.1913C465.498 49.6839 465.718 50.1523 465.948 50.2296C466.179 50.3069 466.368 50.7173 466.368 51.1423C466.368 51.5648 466.529 51.9125 466.725 51.9125C467.032 51.9125 467.44 53.2912 467.65 55.0321C467.684 55.3074 467.86 55.5343 468.046 55.5343C468.229 55.5343 468.381 55.7999 468.381 56.1259C468.381 56.4518 468.744 57.3621 469.185 58.1493C469.627 58.9388 469.989 59.8346 469.989 60.1413C469.989 60.4479 470.216 60.7739 470.494 60.8656C470.885 60.996 471.04 66.5591 471.197 86.153L471.4 111.269L478.211 111.38C483.39 111.465 485.1 111.368 485.346 110.977C485.527 110.697 485.674 99.5537 485.679 86.2182C485.681 72.8828 485.822 61.9739 485.988 61.9739C486.157 61.9739 486.534 61.3847 486.828 60.6652C487.954 57.9102 488.205 57.3235 488.54 56.6595C488.733 56.2804 489.006 55.2397 489.149 54.344C489.291 53.4506 489.566 52.7166 489.76 52.7166C489.953 52.7166 490.112 52.3544 490.112 51.9125C490.112 51.4707 490.293 51.1085 490.513 51.1085C490.735 51.1085 490.916 50.7511 490.916 50.3141C490.916 49.8795 491.276 48.8799 491.718 48.0976C492.157 47.3128 492.635 45.9438 492.775 45.0577C492.918 44.1691 493.191 43.3457 493.384 43.2274C493.577 43.1091 493.734 42.6504 493.734 42.2061C493.734 41.7642 493.876 41.4914 494.053 41.6C494.227 41.7087 494.4 41.4165 494.434 40.9554C494.468 40.4918 494.652 40.0064 494.84 39.8761C495.219 39.6129 496.549 35.6361 496.549 34.7645C496.549 34.4578 496.73 34.2067 496.953 34.2067C497.175 34.2067 497.356 33.7431 497.356 33.1757C497.356 32.5914 497.53 32.2534 497.757 32.3958C497.993 32.5407 498.16 32.1302 498.16 31.4131C498.16 30.7346 498.341 30.1817 498.563 30.1817C498.783 30.1817 498.964 29.9161 498.964 29.5901C498.964 29.2642 499.418 27.9748 499.971 26.7217C500.524 25.4709 500.978 24.0077 500.978 23.4669C500.978 22.9164 501.154 22.5976 501.378 22.7377C501.608 22.8777 501.782 22.5397 501.782 21.9554C501.782 21.3904 501.963 20.9268 502.185 20.9268C502.405 20.9268 502.586 20.4729 502.586 19.9199C502.586 19.367 502.723 18.9131 502.89 18.9131C503.221 18.9131 504.126 16.5541 504.474 14.789C504.592 14.1806 504.851 13.6832 505.046 13.6832C505.244 13.6832 505.403 13.1399 505.403 12.4759C505.403 11.8119 505.539 11.2662 505.705 11.2638C506.108 11.2614 507.014 9.27424 507.014 8.39535C507.014 8.00902 507.178 7.59131 507.381 7.46575C507.584 7.34261 507.871 6.51684 508.018 5.63312C508.168 4.75181 508.455 3.92604 508.658 3.80049C509.156 3.49384 509.124 1.71916 508.617 1.40527C508.033 1.04309 495.721 1.00446 494.651 1.35939C494.048 1.5598 493.676 2.10307 493.5 3.04474C493.357 3.81015 493.08 4.53451 492.882 4.65523C492.686 4.77837 492.527 5.40857 492.527 6.06049C492.527 6.71 492.346 7.24361 492.123 7.24361C491.901 7.24361 491.72 7.60579 491.72 8.04765C491.72 8.49193 491.539 8.85411 491.319 8.85411C491.097 8.85411 490.916 9.30563 490.916 9.85856C490.916 10.4139 490.735 10.8654 490.513 10.8654C490.293 10.8654 490.153 11.0006 490.202 11.1672C490.358 11.6791 487.929 18.9131 487.603 18.9131C487.432 18.9131 487.294 19.4563 487.294 20.1203C487.294 20.7843 487.157 21.3276 486.988 21.3276C486.819 21.3276 486.35 22.5518 485.945 24.044C485.143 27.0114 484.972 27.4919 483.772 30.1817C483.327 31.1765 482.646 33.0791 482.263 34.4071C481.876 35.7351 481.403 37.1356 481.207 37.5195C481.014 37.9058 480.855 38.5722 480.855 39.0068C480.855 39.439 480.674 39.905 480.454 40.0402C480.232 40.1779 480.051 40.7211 480.051 41.2475C480.051 41.7763 479.87 42.3196 479.648 42.4548C479.428 42.5924 479.247 43.2371 479.247 43.889C479.247 44.5385 479.066 45.0721 478.844 45.0721C478.621 45.0721 478.423 45.5695 478.399 46.178C478.353 47.4384 477.791 45.8037 477.359 43.155C477.24 42.4355 476.984 41.7449 476.786 41.6242C476.591 41.501 476.429 40.8684 476.429 40.2189C476.429 39.567 476.248 39.0358 476.026 39.0358C475.806 39.0358 475.625 38.5819 475.625 38.0289C475.625 37.476 475.444 37.0221 475.222 37.0221C475 37.0221 474.818 36.5102 474.818 35.8824C474.818 35.2546 474.683 34.6075 474.517 34.4409C474.352 34.2743 474.212 34.0184 474.208 33.8711C474.186 33.2361 472.578 29.7833 472.305 29.7809C472.138 29.7809 472.003 29.2352 472.003 28.5712C472.003 27.9072 471.822 27.3639 471.6 27.3639C471.378 27.3639 471.192 26.9583 471.185 26.4585C471.177 25.9611 470.83 24.8335 470.412 23.9522C469.997 23.0709 469.741 22.2113 469.847 22.0399C469.951 21.8709 469.847 21.7308 469.613 21.7308C469.376 21.7308 469.185 21.2793 469.185 20.724C469.185 20.171 469.004 19.7195 468.782 19.7195C468.562 19.7195 468.381 19.3573 468.381 18.9131C468.381 18.4712 468.2 18.109 467.978 18.109C467.756 18.109 467.575 17.701 467.572 17.2036C467.572 16.7062 467.3 15.779 466.969 15.1464C466.638 14.5114 466.368 13.8232 466.368 13.618C466.368 13.4103 466.005 12.4904 465.564 11.5753C465.122 10.6602 464.76 9.57123 464.76 9.15593C464.76 8.74304 464.6 8.50159 464.407 8.6199C464.216 8.73821 463.958 8.09112 463.835 7.17842C463.712 6.26573 463.419 5.39891 463.18 5.25162C462.944 5.10434 462.71 4.49829 462.661 3.9019C462.611 3.30551 462.43 2.81777 462.256 2.81777C462.084 2.81777 461.942 2.45559 461.942 2.01132C461.942 1.53324 461.657 1.18554 461.237 1.15416C458.668 0.960993 447.679 1.05516 447.08 1.2773ZM421.095 12.4759C420.948 12.715 421.419 12.8767 422.256 12.8767C423.029 12.8767 423.775 13.0578 423.913 13.28C424.05 13.5021 424.514 13.6832 424.944 13.6832C425.371 13.6832 425.724 13.8643 425.724 14.084C425.724 14.3061 425.994 14.4872 426.325 14.4872C427.158 14.4872 429.346 16.8607 429.346 17.7662C429.346 18.1766 429.495 18.5122 429.676 18.5122C431.47 18.5122 431.528 41.1703 429.737 41.786C429.522 41.8584 429.346 42.2254 429.346 42.6021C429.346 42.9763 428.983 43.5462 428.542 43.8649C428.097 44.1836 427.735 44.6762 427.735 44.9587C427.735 45.2412 427.588 45.473 427.409 45.473C427.23 45.473 426.731 45.7917 426.303 46.178C423.16 49.0151 409.375 49.807 410.843 47.0665C411.082 46.6199 411.237 39.608 411.237 29.2014V12.0727H416.29C419.557 12.0727 421.257 12.2151 421.095 12.4759ZM422.409 61.1336C423.804 61.8701 426.057 62.7779 426.489 62.7779C426.733 62.7779 426.931 62.959 426.931 63.1812C426.931 63.4009 427.098 63.582 427.3 63.582C427.836 63.582 430.915 66.7088 430.645 66.9768C430.521 67.1024 430.63 67.2038 430.888 67.2038C431.147 67.2038 431.357 67.4766 431.357 67.8074C431.357 68.1406 431.538 68.411 431.76 68.411C431.982 68.411 432.163 68.7732 432.163 69.2175C432.163 69.6594 432.344 70.0215 432.564 70.0215C432.786 70.0215 432.967 70.5503 432.967 71.195C432.967 71.8397 433.129 72.4288 433.327 72.5037C434.573 72.9697 434.561 90.5451 433.313 90.5451C433.122 90.5451 432.967 90.9073 432.967 91.3491C432.967 91.7934 432.786 92.1556 432.564 92.1556C432.344 92.1556 432.163 92.5178 432.163 92.9596C432.163 93.4015 431.982 93.7637 431.76 93.7637C431.538 93.7637 431.357 93.9592 431.357 94.1983C431.357 94.8526 428.505 97.511 427.131 98.1364C426.467 98.4406 425.615 98.8438 425.236 99.037C424.261 99.532 418.046 100.196 414.356 100.201L411.237 100.203L411.224 98.4937C411.217 97.5521 411.174 88.6786 411.123 78.7742L411.036 60.7666H416.372C419.308 60.7666 422.025 60.9308 422.409 61.1336Z" fill="#20ACE3"/>
<path fill-rule="evenodd" clip-rule="evenodd" d="M139.195 0.403228C139.195 0.62295 138.673 0.80404 138.033 0.80404C136.582 0.80404 132.758 2.01614 132.758 2.4749C132.758 2.66323 132.519 2.81776 132.229 2.81776C131.939 2.81776 131.314 3.17994 130.838 3.6218C130.362 4.06366 129.795 4.42584 129.58 4.42584C129.027 4.42584 123.904 9.48188 123.904 10.0252C123.904 10.269 123.372 11.0272 122.723 11.7057C122.073 12.3842 121.214 13.7411 120.811 14.719C120.41 15.6969 119.944 16.4961 119.78 16.4985C119.613 16.4985 119.478 16.8607 119.478 17.305C119.478 17.7468 119.297 18.109 119.074 18.109C118.852 18.109 118.671 18.435 118.671 18.8334C118.671 19.2318 118.517 19.7292 118.328 19.9392C117.884 20.4366 116.66 24.9446 116.66 26.0842C116.66 26.5671 116.479 26.9631 116.257 26.9631C116.037 26.9631 115.856 27.7768 115.856 28.774C115.856 29.7688 115.675 30.5849 115.453 30.5849C115.231 30.5849 115.049 31.389 115.049 32.3717C115.049 33.3544 114.895 34.255 114.702 34.3733C114.511 34.4916 114.255 35.8148 114.132 37.3142C114.009 38.8137 113.69 42.0322 113.427 44.4685C112.587 52.195 113.475 76.2365 114.687 78.5666C114.888 78.9529 115.049 79.8921 115.049 80.6575C115.049 81.4205 115.231 82.1594 115.453 82.2946C115.675 82.4322 115.856 83.2218 115.856 84.05C115.856 84.8782 116.003 85.7281 116.182 85.9381C116.361 86.1482 116.843 87.7225 117.254 89.4392C117.667 91.1535 118.152 92.5564 118.338 92.5564C118.522 92.5564 118.671 92.8823 118.671 93.2807C118.671 94.1814 119.572 96.1709 119.98 96.1758C120.147 96.1782 120.282 96.4365 120.282 96.7504C120.282 97.4675 121.588 99.7952 121.991 99.7976C122.158 99.8 122.293 100.07 122.293 100.396C122.293 101.787 130.024 109.432 131.449 109.451C131.727 109.456 131.951 109.632 131.951 109.842C131.951 110.055 132.586 110.347 133.361 110.492C134.134 110.636 134.769 110.917 134.769 111.115C134.769 111.31 135.211 111.472 135.752 111.472C136.293 111.472 136.845 111.653 136.983 111.873C137.118 112.095 137.843 112.276 138.591 112.276C139.34 112.276 140.064 112.457 140.202 112.679C140.535 113.215 151.941 113.215 152.274 112.679C152.412 112.457 153.238 112.276 154.109 112.276C154.981 112.276 155.696 112.095 155.696 111.873C155.696 111.653 156.147 111.472 156.7 111.472C157.256 111.472 157.707 111.291 157.707 111.069C157.707 110.846 157.978 110.665 158.308 110.665C159.146 110.665 162.133 109.335 162.133 108.961C162.133 108.792 162.384 108.654 162.688 108.654C163.504 108.654 169.377 102.69 169.377 101.864C169.377 101.652 169.519 101.418 169.695 101.343C170.197 101.13 172.194 97.511 172.194 96.8108C172.194 96.4631 172.329 96.1782 172.496 96.1758C172.904 96.1709 173.805 94.1814 173.805 93.2807C173.805 92.8823 173.986 92.5564 174.206 92.5564C174.428 92.5564 174.609 92.1145 174.609 91.5761C174.609 91.0352 174.783 90.4847 174.993 90.3543C175.203 90.2239 175.5 89.0336 175.649 87.708C175.799 86.38 176.079 85.1993 176.272 85.0786C176.463 84.9603 176.62 84.149 176.62 83.2773C176.62 82.4057 176.801 81.691 177.023 81.691C177.253 81.691 177.427 80.4837 177.427 78.8756C177.427 77.3255 177.588 76.0579 177.786 76.0579C179.129 76.0579 179.129 37.8647 177.786 36.4402C177.588 36.2301 177.427 35.018 177.427 33.748C177.427 32.4755 177.245 31.3238 177.023 31.1886C176.801 31.0509 176.62 30.3145 176.62 29.5491C176.62 28.7837 176.449 27.8444 176.239 27.4605C176.029 27.0766 175.746 25.9055 175.613 24.8601C175.478 23.8121 175.196 22.8512 174.988 22.7232C174.78 22.5928 174.609 22.134 174.609 21.7018C174.609 21.2696 174.428 20.5549 174.206 20.1155C173.986 19.676 173.624 18.9565 173.402 18.5171C173.179 18.0776 172.998 17.4595 172.998 17.1408C172.998 16.8245 172.863 16.5058 172.697 16.4333C172.532 16.3585 171.991 15.4699 171.496 14.4582C171.004 13.4465 170.144 12.0872 169.587 11.4401C169.029 10.7906 168.572 10.0807 168.572 9.86096C168.572 9.40703 163.765 4.82907 163.287 4.82907C163.116 4.82907 162.56 4.42101 162.051 3.92362C161.544 3.42623 160.675 2.81052 160.122 2.55699C156.959 1.10344 156.039 0.80404 154.728 0.80404C153.933 0.80404 153.281 0.62295 153.281 0.403228C153.281 0.149701 150.664 0 146.238 0C141.812 0 139.195 0.149701 139.195 0.403228ZM307.239 0.350108C307.121 0.540856 306.1 0.820942 304.967 0.970643C303.837 1.12276 302.611 1.39802 302.241 1.58394C301.874 1.77227 300.667 2.34934 299.561 2.87088C298.455 3.39242 297.311 4.04676 297.016 4.32443C296.724 4.6021 296.335 4.82907 296.154 4.82907C295.729 4.82907 289.299 10.991 289.299 11.399C289.299 11.5656 288.961 12.0678 288.548 12.5097C288.135 12.954 287.455 13.9874 287.039 14.8083C286.622 15.6269 286.146 16.3585 285.979 16.4333C285.813 16.5058 285.677 16.9138 285.677 17.3388C285.677 17.7613 285.496 18.109 285.274 18.109C285.054 18.109 284.873 18.3746 284.873 18.7006C284.873 19.0265 284.511 19.9344 284.072 20.7167C283.632 21.5014 283.154 22.8657 283.014 23.7494C282.874 24.6307 282.599 25.3526 282.406 25.3526C282.213 25.3526 282.056 25.8959 282.056 26.5599C282.056 27.2239 281.875 27.7672 281.652 27.7672C281.433 27.7672 281.252 28.3901 281.252 29.1507C281.252 29.9137 281.071 30.6477 280.848 30.7853C280.626 30.923 280.445 31.7125 280.445 32.5407C280.445 33.3665 280.274 34.2164 280.066 34.4264C279.856 34.6365 279.557 36.9424 279.402 39.5501C279.245 42.1602 278.965 44.3888 278.777 44.5047C278.33 44.7824 278.328 73.6433 278.777 73.6433C278.965 73.6433 279.238 75.4929 279.388 77.7553C279.535 80.0177 279.834 82.0459 280.052 82.2632C280.269 82.4805 280.445 83.2435 280.445 83.9606C280.445 84.6802 280.626 85.378 280.848 85.5156C281.071 85.6508 281.252 86.2955 281.252 86.9474C281.252 87.5969 281.433 88.1305 281.652 88.1305C281.875 88.1305 282.056 88.4927 282.056 88.9346C282.056 89.3789 282.237 89.741 282.459 89.741C282.679 89.741 282.86 90.1298 282.86 90.6054C282.86 91.5375 284.837 95.8909 285.361 96.113C285.535 96.1854 285.677 96.4172 285.677 96.6249C285.677 98.2136 293.146 107.044 294.488 107.044C294.734 107.044 294.932 107.225 294.932 107.447C294.932 107.669 295.171 107.85 295.461 107.85C295.751 107.85 296.345 108.181 296.779 108.586C297.217 108.992 298.472 109.642 299.573 110.03C300.672 110.419 301.889 110.902 302.273 111.105C302.656 111.305 303.335 111.472 303.782 111.472C304.226 111.472 304.59 111.653 304.59 111.873C304.59 112.095 305.213 112.276 305.976 112.276C306.737 112.276 307.473 112.457 307.609 112.679C307.942 113.215 319.351 113.215 319.681 112.679C319.819 112.457 320.543 112.276 321.292 112.276C322.04 112.276 322.765 112.095 322.902 111.873C323.038 111.653 323.682 111.472 324.334 111.472C324.984 111.472 325.517 111.291 325.517 111.069C325.517 110.846 325.834 110.663 326.222 110.658C327.335 110.644 330.146 109.238 331.092 108.222C332.913 106.269 332.225 95.7919 330.274 95.7701C329.752 95.7653 323.902 98.5758 323.506 99.0225C323.134 99.4402 318.503 100.285 315.516 100.478C309.509 100.87 303.386 97.9601 300.756 93.4618C300.336 92.7423 299.848 92.1556 299.674 92.1556C299.501 92.1556 299.361 91.7934 299.361 91.3491C299.361 90.9073 299.221 90.5451 299.052 90.5451C298.685 90.5451 297.347 87.5631 297.347 86.7422C297.347 86.4259 297.166 86.054 296.946 85.9164C296.724 85.7812 296.543 85.1365 296.543 84.4846C296.543 83.8351 296.362 83.3015 296.14 83.3015C295.92 83.3015 295.739 82.5868 295.739 81.7151C295.739 80.8435 295.558 80.0177 295.336 79.8801C295.113 79.7449 294.932 79.1364 294.932 78.5279C294.932 77.9219 294.759 77.2531 294.546 77.0406C292.911 75.4035 292.909 36.4498 294.546 35.8824C294.759 35.81 294.932 35.0494 294.932 34.1971C294.932 33.3423 295.113 32.531 295.336 32.3958C295.558 32.2582 295.739 31.5242 295.739 30.7612C295.739 30.0006 295.92 29.3777 296.14 29.3777C296.362 29.3777 296.543 29.0348 296.543 28.6171C296.543 28.2018 296.813 27.3398 297.144 26.7072C297.475 26.0722 297.745 25.1474 297.748 24.6476C297.75 24.1502 297.931 23.7421 298.153 23.7421C298.373 23.7421 298.554 23.5393 298.554 23.2882C298.554 23.0371 299.189 21.9505 299.964 20.8737C300.737 19.7944 301.372 18.8165 301.372 18.6982C301.372 17.94 304.75 15.2864 307.106 14.1926C307.937 13.8087 308.616 13.3548 308.616 13.1858C308.616 13.0168 309.248 12.8767 310.023 12.8767C310.798 12.8767 311.433 12.6956 311.433 12.4759C311.433 12.232 313.109 12.0727 315.659 12.0727C318.206 12.0727 319.884 12.232 319.884 12.4759C319.884 12.6956 320.326 12.8767 320.864 12.8767C321.405 12.8767 321.961 13.0578 322.096 13.2799C322.233 13.5021 322.69 13.6832 323.112 13.6832C323.535 13.6832 324.689 14.1347 325.681 14.6876C326.671 15.243 327.765 15.6945 328.11 15.6945C328.456 15.6945 328.736 15.8876 328.736 16.1219C328.736 16.3681 329.373 16.4961 330.245 16.4237L331.754 16.2981L331.868 10.7157C331.981 5.05845 331.578 2.81776 330.45 2.81776C330.172 2.81776 329.943 2.63667 329.943 2.41454C329.943 2.1924 329.593 2.01131 329.163 2.01131C328.733 2.01131 328.275 1.83988 328.144 1.6274C328.014 1.41733 326.826 1.12276 325.505 0.973058C324.184 0.823357 323.103 0.54327 323.103 0.350108C323.103 -0.10624 307.522 -0.108654 307.239 0.350108ZM655.905 0.345278C655.905 0.536027 654.957 0.804041 653.795 0.941669C652.636 1.0793 651.624 1.37629 651.55 1.60325C651.475 1.8278 651.064 2.01131 650.642 2.01131C650.217 2.01131 649.869 2.1924 649.869 2.41454C649.869 2.63667 649.507 2.81776 649.065 2.81776C648.623 2.81776 648.261 2.99885 648.261 3.21858C648.261 3.44071 647.988 3.6218 647.657 3.6218C647.324 3.6218 647.054 3.79082 647.054 3.99606C647.054 4.20371 646.689 4.48862 646.247 4.62866C645.202 4.95946 641.148 9.01346 640.817 10.059C640.675 10.5032 640.392 10.8654 640.184 10.8654C639.979 10.8654 639.81 11.0537 639.81 11.2855C639.81 11.5149 639.448 12.092 639.004 12.5677C638.562 13.0433 638.2 13.6687 638.2 13.9584C638.2 14.2506 638.033 14.4872 637.83 14.4872C637.625 14.4872 637.34 15.0281 637.195 15.6897C637.05 16.3512 636.763 16.9959 636.56 17.1215C636.355 17.2494 636.188 17.7034 636.188 18.1332C636.188 18.5629 636.007 18.9131 635.785 18.9131C635.563 18.9131 635.382 19.367 635.382 19.9199C635.382 20.4728 635.201 20.9268 634.981 20.9268C634.759 20.9268 634.578 21.2769 634.578 21.7067C634.578 22.1365 634.414 22.588 634.216 22.7135C634.015 22.8367 633.725 24.0246 633.571 25.3526C633.419 26.6806 633.129 27.7672 632.929 27.7672C632.728 27.7672 632.566 28.6726 632.566 29.7785C632.566 30.8867 632.385 31.7922 632.163 31.7922C631.941 31.7922 631.76 32.6614 631.76 33.7238C631.76 34.7862 631.593 35.8269 631.388 36.0369C630.529 36.9182 629.725 68.5487 630.543 69.3672C630.77 69.5942 630.956 71.364 630.956 73.298C630.956 75.2321 631.137 76.9271 631.359 77.0647C631.579 77.1999 631.76 78.1175 631.76 79.1002C631.76 80.0829 631.941 80.8869 632.163 80.8869C632.385 80.8869 632.566 81.7827 632.566 82.8741C632.566 83.9679 632.731 84.9651 632.931 85.0882C633.131 85.2138 633.426 86.2569 633.583 87.411C633.866 89.4682 633.984 89.8376 634.918 91.6461C635.174 92.1411 635.382 92.9113 635.382 93.3556C635.382 93.8023 635.519 94.1669 635.686 94.1669C635.855 94.1669 636.241 94.756 636.546 95.4756C637.799 98.4309 638.277 99.3292 639.025 100.133C639.455 100.594 639.81 101.155 639.81 101.372C639.81 102.041 646.542 108.654 647.223 108.654C647.57 108.654 647.858 108.806 647.858 108.992C647.858 109.18 648.536 109.659 649.367 110.059C650.197 110.458 651.19 110.938 651.574 111.129C651.96 111.317 652.626 111.472 653.061 111.472C653.493 111.472 653.959 111.653 654.094 111.873C654.232 112.095 654.865 112.276 655.505 112.276C656.142 112.276 656.775 112.457 656.912 112.679C657.245 113.215 669.055 113.215 669.388 112.679C669.523 112.457 670.26 112.276 671.02 112.276C671.783 112.276 672.406 112.095 672.406 111.873C672.406 111.653 672.86 111.472 673.418 111.472C673.973 111.472 674.744 111.298 675.128 111.088C675.511 110.878 676.506 110.405 677.334 110.035C678.165 109.668 678.843 109.207 678.843 109.011C678.843 108.813 679.194 108.654 679.621 108.654C680.051 108.654 680.512 108.302 680.65 107.869C680.785 107.44 681.244 106.976 681.666 106.841C682.318 106.636 683.462 105.39 687.125 100.896C687.446 100.5 688.021 99.4595 688.403 98.5806C688.784 97.7018 689.233 96.9846 689.402 96.9846C689.571 96.9846 689.709 96.6321 689.709 96.2023C689.709 95.7725 689.89 95.309 690.112 95.1737C690.334 95.0361 690.515 94.5725 690.515 94.1427C690.515 93.7129 690.696 93.3628 690.916 93.3628C691.138 93.3628 691.322 93.0441 691.327 92.6578C691.329 92.2715 691.592 91.2284 691.911 90.3447C692.23 89.4585 692.5 88.145 692.51 87.4255C692.519 86.706 692.708 86.1192 692.93 86.1192C693.15 86.1192 693.331 85.3031 693.331 84.3083C693.331 83.3111 693.49 82.4974 693.686 82.4974C693.881 82.4974 694.154 81.4543 694.292 80.1819C694.432 78.9094 694.724 76.5118 694.944 74.8506C696.489 63.1063 696.494 49.5149 694.96 38.0289C694.753 36.4788 694.461 34.1705 694.311 32.898C694.159 31.6256 693.879 30.5849 693.683 30.5849C693.49 30.5849 693.331 29.7688 693.331 28.774C693.331 27.7768 693.15 26.9631 692.93 26.9631C692.708 26.9631 692.519 26.374 692.51 25.6544C692.5 24.9349 692.23 23.6214 691.911 22.7377C691.592 21.8515 691.329 20.8109 691.327 20.4221C691.322 20.0358 691.138 19.7195 690.916 19.7195C690.696 19.7195 690.515 19.4443 690.515 19.1086C690.515 18.5412 689.772 16.95 689.296 16.4985C689.18 16.3875 688.743 15.482 688.325 14.4872C687.908 13.49 687.234 12.3745 686.828 12.0075C686.42 11.6405 686.087 11.1383 686.087 10.892C686.087 10.3149 680.249 4.42584 679.679 4.42584C679.44 4.42584 679.247 4.24475 679.247 4.02503C679.247 3.80289 678.991 3.6218 678.677 3.6218C678.363 3.6218 678.047 3.48659 677.972 3.31999C677.655 2.61011 674.166 1.18554 672.165 0.948912C670.97 0.808869 669.992 0.538442 669.992 0.347693C669.992 0.156945 666.821 0 662.949 0C659.076 0 655.905 0.156945 655.905 0.345278ZM824.119 0.347693C824.119 0.538442 823.126 0.811284 821.912 0.953741C820.7 1.0962 819.065 1.57428 818.278 2.01372C817.493 2.45558 816.619 2.81776 816.334 2.81776C816.052 2.81776 815.431 3.17994 814.956 3.6218C814.48 4.06366 813.932 4.42584 813.734 4.42584C813.538 4.42584 812.942 4.79285 812.411 5.24196C808.625 8.43639 807.393 9.69194 805.933 11.8433C805.022 13.1882 804.168 14.3761 804.037 14.4872C803.622 14.8349 802.388 17.7058 802.388 18.3239C802.388 18.6475 802.253 18.9155 802.086 18.9179C801.685 18.9203 800.778 20.905 800.778 21.7767C800.778 22.1582 800.642 22.53 800.476 22.6025C800.051 22.7932 798.761 26.584 798.764 27.6416C798.766 28.1269 798.585 28.6364 798.363 28.774C798.143 28.9092 797.962 29.6336 797.962 30.3821C797.962 31.1306 797.781 31.855 797.559 31.9926C797.337 32.1302 797.156 32.828 797.156 33.5451C797.156 34.2623 796.989 35.0228 796.786 35.2329C796.583 35.443 796.32 36.7903 796.204 38.2293C796.086 39.6684 795.789 42.8387 795.54 45.2725C794.929 51.2364 795.188 75.8599 795.866 76.5384C796.134 76.8064 796.352 78.074 796.352 79.3585C796.352 80.6455 796.533 81.691 796.755 81.691C796.975 81.691 797.156 82.326 797.156 83.1011C797.156 83.8737 797.337 84.5087 797.559 84.5087C797.781 84.5087 797.962 85.1413 797.962 85.9164C797.962 86.6915 798.143 87.3265 798.363 87.3265C798.585 87.3265 798.766 87.5776 798.766 87.8843C798.766 88.8694 800.084 92.5564 800.437 92.5564C800.625 92.5564 800.778 92.9186 800.778 93.3628C800.778 93.8047 800.959 94.1669 801.181 94.1669C801.403 94.1669 801.584 94.5146 801.584 94.9371C801.584 95.3621 801.719 95.7701 801.886 95.8426C802.05 95.9174 802.501 96.6104 802.888 97.3855C803.863 99.3412 804.484 100.285 805.305 101.051C805.694 101.41 806.01 101.838 806.01 102.002C806.01 102.35 808.639 105.032 808.98 105.032C809.11 105.032 809.868 105.665 810.665 106.44C811.462 107.215 812.372 107.85 812.684 107.85C812.997 107.85 813.253 108.031 813.253 108.251C813.253 108.473 813.524 108.654 813.857 108.654C814.188 108.654 814.461 108.792 814.461 108.958C814.461 109.311 816.173 110.098 817.786 110.487C818.396 110.634 818.995 110.917 819.116 111.112C819.237 111.31 819.768 111.472 820.297 111.472C820.823 111.472 821.366 111.653 821.504 111.873C821.639 112.095 822.363 112.276 823.112 112.276C823.86 112.276 824.585 112.457 824.722 112.679C824.87 112.916 827.335 113.08 830.759 113.08C834.183 113.08 836.648 112.916 836.795 112.679C836.933 112.457 837.667 112.276 838.43 112.276C839.19 112.276 839.813 112.095 839.813 111.873C839.813 111.653 840.357 111.472 841.021 111.472C841.685 111.472 842.228 111.291 842.228 111.069C842.228 110.846 842.607 110.665 843.073 110.665C844.222 110.665 846.656 109.477 847.772 108.372C848.653 107.498 848.684 107.234 848.578 101.72L848.465 95.9778L847.335 95.8474C846.712 95.7774 845.934 95.9416 845.608 96.212C844.72 96.9508 841.366 98.5927 840.75 98.5927C840.456 98.5927 840.216 98.7497 840.216 98.9428C840.216 99.5537 832.925 100.703 830.356 100.498C826.657 100.203 823.863 99.3388 822.264 97.9891C822.001 97.7694 820.968 96.9533 819.966 96.1782C818.964 95.4031 818.041 94.4977 817.913 94.1669C817.788 93.8337 817.155 92.7471 816.508 91.7523C815.859 90.7551 815.315 89.6251 815.296 89.2364C815.279 88.8501 815.084 88.5338 814.864 88.5338C814.642 88.5338 814.461 88.1716 814.461 87.7273C814.461 87.2855 814.292 86.9233 814.086 86.9233C813.881 86.9233 813.589 85.9261 813.437 84.7043C813.285 83.485 813 82.3864 812.804 82.2656C812.609 82.1449 812.449 81.423 812.449 80.6624C812.449 79.8994 812.268 79.2764 812.046 79.2764C811.824 79.2764 811.643 78.4627 811.643 77.4655C811.643 76.4707 811.462 75.6546 811.242 75.6546C811.008 75.6546 810.839 74.3822 810.839 72.6365C810.839 70.9777 810.67 69.6183 810.465 69.6183C810.245 69.6183 810.076 64.2001 810.049 56.3384C810.023 47.4529 810.146 43.0584 810.424 43.0584C810.672 43.0584 810.839 41.8536 810.839 40.0644C810.839 38.4177 811.02 36.9593 811.242 36.8217C811.462 36.684 811.643 35.7689 811.643 34.7862C811.643 33.8035 811.805 32.9995 812 32.9995C812.196 32.9995 812.454 32.4996 812.575 31.8912C813.451 27.434 814.388 24.5486 814.96 24.5486C815.129 24.5486 815.265 24.1864 815.265 23.7421C815.265 23.3003 815.405 22.9381 815.574 22.9381C815.743 22.9381 816.187 22.2306 816.561 21.3638C817.677 18.7923 823.351 13.6832 825.092 13.6832C825.415 13.6832 825.792 13.5021 825.93 13.2799C826.067 13.0578 826.62 12.8767 827.161 12.8767C827.702 12.8767 828.144 12.6956 828.144 12.4759C828.144 12.232 829.812 12.0727 832.345 12.0727C834.711 12.0727 836.655 12.2489 836.795 12.4759C836.933 12.6956 837.577 12.8767 838.227 12.8767C838.879 12.8767 839.41 13.0578 839.41 13.2799C839.41 13.5021 839.864 13.6832 840.417 13.6832C840.97 13.6832 841.424 13.8643 841.424 14.084C841.424 14.3061 841.74 14.492 842.126 14.4993C842.515 14.5065 843.184 14.7794 843.614 15.1029C844.041 15.4289 844.722 15.6945 845.123 15.6945C845.521 15.6945 845.85 15.8756 845.85 16.0977C845.85 16.3174 846.482 16.4985 847.257 16.4985H848.667V10.2328C848.667 3.93569 848.428 2.81776 847.086 2.81776C846.849 2.81776 846.654 2.63667 846.654 2.41454C846.654 2.1924 846.304 2.01131 845.874 2.01131C845.444 2.01131 844.985 1.83988 844.855 1.6274C844.724 1.41733 843.536 1.12276 842.216 0.973058C840.895 0.823357 839.813 0.54327 839.813 0.350108C839.813 0.156945 836.281 0 831.966 0C827.649 0 824.119 0.156945 824.119 0.347693ZM0.484599 1.30868C0.0910299 1.91714 -0.201129 101.497 0.173124 107.345L0.436307 111.472H7.24047H14.0422L14.0857 93.8651C14.1098 84.1828 14.1002 72.593 14.0639 68.1092L13.9988 59.9602H19.8323C23.2875 59.9602 25.7672 59.796 25.9145 59.5593C26.0497 59.3372 27.1918 59.1489 28.4522 59.1392C29.7125 59.1296 31.5573 58.9364 32.5545 58.7118C33.5492 58.4873 34.8628 58.2024 35.4712 58.0792C36.0797 57.9585 36.5771 57.6977 36.5771 57.4997C36.5771 57.3042 36.8523 57.1448 37.188 57.1448C37.7916 57.1448 39.4117 56.3673 39.7981 55.8892C39.9067 55.754 40.4065 55.515 40.9039 55.3605C41.4013 55.2059 41.8094 54.9089 41.8094 54.7013C41.8094 54.4961 41.9977 54.327 42.2247 54.327C42.4541 54.327 43.2678 53.6993 44.0356 52.9314C44.8034 52.1636 45.4312 51.3499 45.4312 51.1205C45.4312 50.8936 45.5954 50.7052 45.7934 50.7052C45.9938 50.7052 46.4912 49.8915 46.8992 48.8968C47.3097 47.8995 47.7805 47.0859 47.9471 47.0859C48.1113 47.0834 48.2489 46.5402 48.2489 45.8762C48.2489 45.2122 48.43 44.6689 48.6497 44.6689C48.8719 44.6689 49.053 44.157 49.053 43.5292C49.053 42.9015 49.1882 42.252 49.3548 42.0878C50.7987 40.6487 50.8566 22.7135 49.4248 20.0262C49.2196 19.6422 49.053 18.9734 49.053 18.5412C49.053 18.109 48.8719 17.643 48.6497 17.5054C48.43 17.3678 48.2489 16.8148 48.2489 16.274C48.2489 15.7331 48.0678 15.2913 47.8457 15.2913C47.6236 15.2913 47.4425 15.0353 47.4425 14.7214C47.4425 14.0019 46.1386 11.6767 45.733 11.6719C45.5664 11.6719 45.4312 11.4183 45.4312 11.1141C45.4312 10.5081 42.2488 7.24361 41.6597 7.24361C41.4617 7.24361 41.0077 6.91764 40.6504 6.51924C39.8971 5.6814 37.3594 4.42584 36.4153 4.42584C36.0628 4.42584 35.773 4.24475 35.773 4.02503C35.773 3.80289 35.3215 3.6218 34.7662 3.6218C34.2132 3.6218 33.7617 3.44071 33.7617 3.21858C33.7617 2.99885 33.2185 2.81776 32.5545 2.81776C31.8905 2.81776 31.3472 2.65357 31.3472 2.45317C31.3472 1.21934 1.26449 0.103825 0.484599 1.30868ZM59.0009 1.37629C58.3006 2.0765 57.8636 109.036 58.5518 110.834C58.7618 111.38 59.7856 111.472 65.7954 111.472H72.7951L72.8096 87.2251L72.8217 62.9783L73.9613 65.1925C77.5348 72.1294 78.2568 73.455 78.5296 73.5757C78.6962 73.6506 78.8314 74.0586 78.8314 74.4812C78.8314 74.9061 78.9691 75.2538 79.1357 75.2538C79.3047 75.2538 79.6548 75.7512 79.9156 76.3597C80.1763 76.9681 80.7148 78.2358 81.1132 79.1774C81.5116 80.1167 81.9776 80.8869 82.1466 80.8869C82.3156 80.8869 82.4532 81.0849 82.4532 81.3288C82.4532 81.5702 82.8033 82.2608 83.2331 82.862C83.6605 83.4632 84.1313 84.4411 84.281 85.0351C84.4307 85.6315 84.7157 86.1192 84.9112 86.1192C85.1092 86.1192 85.271 86.4814 85.271 86.9233C85.271 87.3651 85.4521 87.7273 85.6742 87.7273C85.894 87.7273 86.075 88.0002 86.075 88.3309C86.075 88.6642 86.2561 88.9346 86.4783 88.9346C86.7004 88.9346 86.8815 89.2968 86.8815 89.741C86.8815 90.1829 87.0626 90.5451 87.2823 90.5451C87.5045 90.5451 87.6855 90.7527 87.6855 91.0087C87.6855 91.6437 89.7934 95.9464 90.187 96.113C90.3608 96.1854 90.5033 96.5935 90.5033 97.0184C90.5033 97.441 90.6651 97.7887 90.8607 97.7887C91.0586 97.7887 91.3339 98.2426 91.4715 98.7955C91.6116 99.3485 91.9037 99.8 92.121 99.8C92.3359 99.8 92.5194 100.119 92.5243 100.505C92.5291 100.891 92.8864 101.662 93.3187 102.215C93.7533 102.77 94.1106 103.448 94.1154 103.724C94.1203 104.001 94.2845 104.228 94.4825 104.228C94.678 104.228 94.9581 104.861 95.103 105.636C95.2503 106.411 95.54 107.044 95.7525 107.044C95.9626 107.044 96.1364 107.406 96.1364 107.85C96.1364 108.292 96.2837 108.654 96.4648 108.654C96.6435 108.654 97.0394 109.287 97.3437 110.062L97.8966 111.472H103.235C106.393 111.472 108.987 111.66 109.588 111.933C110.368 112.288 110.74 112.278 111.215 111.882C111.725 111.46 111.831 111.484 111.831 112.025C111.831 112.995 112.505 112.817 112.785 111.774C113.161 110.364 113.082 108.654 112.635 108.654C112.415 108.654 112.234 108.326 112.234 107.925C112.234 107.524 111.872 106.807 111.428 106.331C110.986 105.858 110.624 105.204 110.624 104.883C110.624 104.559 110.488 104.233 110.322 104.161C110.155 104.086 109.484 102.939 108.827 101.611C108.173 100.283 107.325 98.7328 106.944 98.1678C106.562 97.6003 106.128 96.649 105.978 96.055C105.828 95.4587 105.546 94.9709 105.348 94.9709C105.152 94.9709 104.991 94.6087 104.991 94.1669C104.991 93.725 104.809 93.3628 104.587 93.3628C104.365 93.3628 104.184 93.09 104.184 92.7592C104.184 92.426 104.003 92.1556 103.783 92.1556C103.561 92.1556 103.38 91.8079 103.38 91.3829C103.38 90.9604 103.245 90.5523 103.078 90.4775C102.912 90.405 102.069 88.9394 101.205 87.2251C100.34 85.5108 99.4999 84.1055 99.3381 84.1055C99.1763 84.1055 98.9252 83.4729 98.7779 82.6978C98.633 81.9228 98.3409 81.2902 98.1308 81.2902C97.9183 81.2902 97.7469 80.928 97.7469 80.4837C97.7469 80.0418 97.5996 79.6797 97.4185 79.6797C97.2399 79.6797 96.8439 79.0446 96.5396 78.272C96.2354 77.4969 95.8394 76.8619 95.6583 76.8619C95.4797 76.8619 95.3324 76.5866 95.3324 76.251C95.3324 75.9154 94.9195 74.9641 94.4148 74.1383C93.9078 73.3125 92.7778 71.1877 91.8989 69.4179C91.02 67.648 90.1653 66.139 89.9987 66.0641C89.8345 65.9917 89.6968 65.5836 89.6968 65.1586C89.6968 64.7337 89.5158 64.3884 89.296 64.3884C89.0739 64.3884 88.8928 64.1156 88.8928 63.7848C88.8928 63.4516 88.7117 63.1811 88.4896 63.1811C88.2699 63.1811 88.0888 62.9035 88.0888 62.563C88.0888 62.2226 87.8111 61.5248 87.4755 61.0105C86.6352 59.7284 87.2316 59.3324 90.484 59.0088C91.9134 58.8664 93.2631 58.5694 93.4828 58.3497C93.7026 58.1299 94.1927 57.9488 94.5694 57.9488C95.2358 57.9488 98.2177 56.5484 99.2777 55.7347C100.521 54.781 102.576 52.661 102.576 52.3278C102.576 52.1298 102.902 51.8618 103.303 51.7362C104.068 51.4924 106.198 47.9237 106.198 46.8854C106.198 46.5522 106.379 46.2794 106.599 46.2794C106.821 46.2794 107.002 45.7458 107.002 45.0963C107.002 44.4444 107.183 43.7997 107.405 43.662C107.625 43.5268 107.806 42.8266 107.806 42.1095C107.806 41.3924 107.975 40.6342 108.18 40.4242C109.269 39.3062 109.269 22.2717 108.178 21.1465C107.972 20.9364 107.806 20.1686 107.806 19.437C107.806 18.7078 107.625 18.109 107.405 18.109C107.183 18.109 107.002 17.7444 107.002 17.2977C107.002 16.8535 106.83 16.175 106.618 15.7886C106.408 15.4047 105.915 14.3737 105.527 13.4948C104.785 11.8312 103.573 10.2738 101.634 8.49434C98.2081 5.35061 97.4644 4.77354 96.5421 4.54898C95.9867 4.41377 95.441 4.19405 95.3324 4.06366C94.8881 3.53247 93.2849 2.81776 92.5436 2.81776C92.1114 2.81776 91.6454 2.63667 91.5078 2.41454C91.3725 2.1924 90.583 2.01131 89.7548 2.01131C88.9266 2.01131 88.0526 1.81573 87.8159 1.57911C86.9733 0.736433 59.8315 0.545685 59.0009 1.37629ZM200.365 1.19761C199.833 1.53323 199.734 7.52852 199.558 49.8433C199.37 95.0796 199.314 98.1557 198.653 98.8849C198.266 99.3122 197.948 99.829 197.945 100.034C197.94 100.577 195.948 101.41 194.649 101.41C194.029 101.41 193.522 101.592 193.522 101.814C193.522 102.033 193.172 102.215 192.742 102.215C192.312 102.215 191.849 102.033 191.711 101.814C191.576 101.592 190.803 101.41 189.997 101.41C188.504 101.41 183.864 99.5296 183.864 98.9259C183.864 98.7424 183.632 98.5927 183.349 98.5927C183.067 98.5927 182.574 98.2305 182.256 97.7887C181.937 97.3468 181.261 96.9846 180.759 96.9846H179.841V103.825V110.665H180.846C181.401 110.665 181.852 110.846 181.852 111.069C181.852 111.291 182.485 111.472 183.26 111.472C184.035 111.472 184.67 111.653 184.67 111.873C184.67 112.095 185.358 112.276 186.199 112.276C187.039 112.276 187.918 112.467 188.15 112.698C188.99 113.536 204.791 112.713 204.791 111.832C204.791 111.634 205.054 111.472 205.372 111.472C207.089 111.472 211.631 108.065 211.631 106.776C211.631 106.517 211.824 106.242 212.061 106.165C212.295 106.085 212.592 105.254 212.717 104.32C212.843 103.383 213.101 102.618 213.295 102.618C213.488 102.618 213.645 101.804 213.645 100.807C213.645 99.8096 213.826 98.9959 214.045 98.9959C214.676 98.9959 214.596 1.91714 213.966 1.28695C213.374 0.695386 201.285 0.618121 200.365 1.19761ZM228.834 1.23866C228.17 1.6274 228.132 4.68903 228.132 56.5605V111.472H249.416C268.455 111.472 270.727 111.404 270.946 110.834C271.079 110.484 271.19 108.043 271.19 105.411C271.19 98.8028 272.395 99.2978 256.614 99.404C249.691 99.4499 243.71 99.4692 243.322 99.4426C242.662 99.4016 242.619 98.175 242.619 79.6797V59.9602H256.02C271.866 59.9602 270.386 60.5734 270.386 54.0156C270.386 47.2621 271.864 47.8875 255.928 47.8875H242.619V30.3821V12.8767H256.421C266.62 12.8767 270.35 12.7512 270.707 12.3938C271.552 11.5511 271.362 2.02821 270.485 1.36421C269.594 0.688143 229.986 0.56983 228.834 1.23866ZM337.129 1.07447C336.197 1.32075 335.576 4.16749 335.591 8.12491C335.61 13.1665 334.98 12.8767 345.985 12.8767H355.296V62.1743V111.472H362.539H369.783V62.1743V12.8767H379.173C390.432 12.8767 389.589 13.4079 389.416 6.44922C389.304 1.97992 389.268 1.81573 388.295 1.32558C387.325 0.835429 338.923 0.598805 337.129 1.07447ZM517.574 1.04066C517.173 1.22658 517.07 12.6884 517.07 56.3722V111.472H524.313H531.557V85.716V59.9602H537.593C540.913 59.9602 543.629 59.8056 543.629 59.6173C543.629 59.429 545.211 59.1537 547.14 59.004C549.072 58.8567 550.827 58.5573 551.045 58.3424C551.259 58.1251 551.844 57.9488 552.339 57.9488C552.836 57.9488 553.353 57.7678 553.49 57.5456C553.626 57.3259 554.089 57.1448 554.519 57.1448C554.949 57.1448 555.301 56.9637 555.301 56.7416C555.301 56.5194 555.664 56.3384 556.105 56.3384C556.547 56.3384 556.909 56.1693 556.909 55.9641C556.909 55.7564 557.274 55.4739 557.716 55.3315C558.761 55.0007 562.815 50.9467 563.146 49.9012C563.289 49.4593 563.571 49.0947 563.779 49.0947C563.984 49.0947 564.153 48.7326 564.153 48.2907C564.153 47.8488 564.334 47.4867 564.556 47.4867C564.778 47.4867 564.96 47.0327 564.96 46.4798C564.96 45.9269 565.119 45.4729 565.314 45.4729C565.679 45.4729 565.79 45.0649 566.575 40.8467C567.205 37.4615 566.894 20.8012 566.167 18.9131C565.867 18.138 565.43 17.008 565.194 16.3995C564.957 15.7911 564.626 15.2913 564.457 15.2913C564.291 15.2913 564.153 14.9291 564.153 14.4872C564.153 14.0454 563.972 13.6832 563.752 13.6832C563.53 13.6832 563.349 13.4055 563.349 13.0651C563.349 12.2103 562.19 10.4767 560.741 9.15833C560.072 8.54987 559.157 7.69029 558.706 7.24602C558.257 6.80175 557.668 6.43957 557.4 6.43957C557.129 6.43957 556.909 6.28986 556.909 6.10636C556.909 5.92527 555.779 5.27817 554.396 4.66971C553.012 4.06125 551.566 3.39484 551.182 3.1896C550.796 2.98437 549.936 2.81776 549.27 2.81776C548.603 2.81776 548.058 2.63667 548.058 2.41454C548.058 2.1924 547.278 2.01131 546.327 2.01131C545.375 2.01131 544.397 1.81332 544.156 1.57186C543.69 1.10586 518.516 0.601219 517.574 1.04066ZM576.404 1.07688C575.018 2.15618 574.999 2.96263 575.11 56.9468C575.171 86.1603 575.376 110.38 575.564 110.767C575.999 111.651 588.965 111.851 589.829 110.989C590.191 110.624 590.312 104.933 590.312 87.848C590.312 73.0131 590.45 65.1925 590.713 65.1925C590.935 65.1925 591.116 65.4653 591.116 65.7961C591.116 66.1269 591.297 66.3997 591.519 66.3997C591.739 66.3997 591.92 66.7619 591.92 67.2038C591.92 67.648 592.058 68.015 592.222 68.0199C592.389 68.0247 593.067 69.2006 593.731 70.63C594.395 72.0594 595.076 73.2329 595.24 73.2353C595.407 73.2377 595.542 73.5129 595.542 73.8437C595.542 74.1769 595.704 74.4474 595.899 74.4474C596.097 74.4474 596.377 75.0824 596.522 75.8575C596.667 76.6301 596.959 77.2651 597.172 77.2651C597.382 77.2651 597.556 77.6273 597.556 78.0692C597.556 78.5134 597.737 78.8756 597.957 78.8756C598.179 78.8756 598.36 79.2378 598.36 79.6797C598.36 80.1215 598.541 80.4837 598.763 80.4837C598.983 80.4837 599.164 80.7565 599.164 81.0873C599.164 81.4205 599.33 81.691 599.536 81.691C599.738 81.691 600.019 82.2101 600.159 82.8451C600.299 83.4777 600.765 84.3759 601.197 84.8395C601.629 85.3031 601.982 86.0516 601.982 86.5031C601.982 86.9571 602.163 87.3265 602.385 87.3265C602.605 87.3265 602.786 87.5969 602.786 87.9301C602.786 88.2609 602.967 88.5338 603.189 88.5338C603.411 88.5338 603.592 88.8211 603.592 89.176C603.592 89.8859 604.826 92.2787 605.302 92.4912C605.468 92.5636 605.603 92.9572 605.603 93.3628C605.603 93.7685 605.739 94.1596 605.905 94.2345C606.308 94.4132 608.421 98.6724 608.421 99.3026C608.421 99.5778 608.568 99.8 608.747 99.8C608.928 99.8 609.324 100.435 609.628 101.21C609.933 101.983 610.329 102.618 610.507 102.618C610.688 102.618 610.843 102.934 610.853 103.323C610.86 103.709 611.413 104.931 612.077 106.039C612.741 107.145 613.388 108.367 613.516 108.755C613.641 109.142 613.885 109.458 614.057 109.458C614.228 109.458 614.484 109.912 614.622 110.465L614.875 111.472H622.512H630.152V110.465C630.152 109.912 629.971 109.458 629.749 109.458C629.527 109.458 629.346 109.26 629.346 109.016C629.346 108.328 628.107 105.807 626.859 103.953C626.236 103.028 625.724 102.169 625.724 102.046C625.724 101.488 624.297 98.5927 624.019 98.5927C623.85 98.5927 623.712 98.2305 623.712 97.7887C623.712 97.3468 623.531 96.9846 623.309 96.9846C623.089 96.9846 622.908 96.7118 622.908 96.381C622.908 96.0478 622.727 95.7774 622.505 95.7774C622.283 95.7774 622.095 95.4587 622.085 95.0723C622.078 94.686 621.537 93.4618 620.885 92.356C620.233 91.2501 619.113 89.1664 618.393 87.7273C617.676 86.2882 616.949 85.052 616.778 84.9772C616.609 84.9047 616.469 84.5111 616.469 84.1055C616.469 83.6999 616.326 83.3087 616.15 83.2339C615.788 83.0817 613.651 78.6559 613.651 78.0595C613.651 77.8446 613.504 77.6684 613.325 77.6684C613.144 77.6684 612.748 77.0333 612.444 76.2583C612.14 75.4832 611.785 74.8506 611.652 74.8506C611.519 74.8506 610.874 73.6747 610.218 72.2357C609.561 70.7966 608.887 69.6207 608.723 69.6207C608.556 69.6183 608.421 69.273 608.421 68.8481C608.421 68.4231 608.283 68.015 608.119 67.9426C607.953 67.8678 607.11 66.4045 606.246 64.6902C605.381 62.9735 604.519 61.5706 604.333 61.5706C603.814 61.5706 603.928 60.3706 604.502 59.7984C604.78 59.5183 606.183 59.1682 607.62 59.0185C609.056 58.8688 610.292 58.567 610.365 58.3472C610.44 58.1275 611.029 57.9488 611.674 57.9488C612.318 57.9488 612.847 57.8016 612.847 57.6205C612.847 57.4418 613.48 57.0458 614.255 56.7416C615.03 56.4373 615.665 56.0534 615.665 55.8892C615.665 55.7226 616.012 55.4788 616.437 55.3436C617.99 54.851 622.102 50.2513 622.102 49.0078C622.102 48.6143 622.283 48.2907 622.505 48.2907C622.727 48.2907 622.908 47.9382 622.908 47.5108C622.908 47.081 623.089 46.6174 623.309 46.4798C623.531 46.3422 623.712 45.7892 623.712 45.2484C623.712 44.7075 623.874 44.2657 624.07 44.2657C624.268 44.2657 624.531 43.6789 624.656 42.9594C625.685 37.0197 625.789 35.4236 625.603 28.5712C625.419 21.726 625.147 19.7871 624.06 17.6116C623.869 17.2277 623.712 16.5492 623.712 16.1025C623.712 15.6558 623.531 15.2913 623.309 15.2913C623.089 15.2913 622.908 14.9291 622.908 14.4872C622.908 14.0454 622.747 13.6832 622.549 13.6832C622.351 13.6832 622.075 13.2292 621.938 12.6763C621.798 12.1234 621.508 11.6694 621.291 11.6694C621.073 11.6694 620.895 11.4111 620.895 11.0924C620.895 10.4718 616.935 6.43957 616.324 6.43957C616.124 6.43957 615.667 6.12085 615.31 5.73452C614.95 5.3482 613.934 4.69386 613.047 4.28097C612.164 3.8705 611.123 3.37069 610.739 3.17511C610.355 2.97712 609.677 2.81776 609.23 2.81776C608.786 2.81776 608.421 2.63667 608.421 2.41454C608.421 2.1924 607.733 2.01131 606.89 2.01131C606.05 2.01131 605.166 1.81573 604.927 1.57911C604.403 1.05274 577.054 0.572245 576.404 1.07688ZM716.94 1.07205C716.793 1.22175 716.672 22.8608 716.672 49.1624C716.672 80.7759 716.537 96.9846 716.269 96.9846C716.049 96.9846 715.868 97.4023 715.868 97.9142C715.868 99.4813 713.627 101.398 711.696 101.483C707.9 101.652 705.341 101.307 703.39 100.365C702.286 99.8338 701.241 99.3992 701.069 99.3992C700.895 99.3992 700.492 99.037 700.173 98.5927C699.855 98.1509 699.36 97.7887 699.077 97.7887C698.795 97.7887 698.563 97.5955 698.563 97.3589C698.563 97.1247 698.066 96.987 697.457 97.0571L696.349 97.185V103.825V110.465L697.457 110.593C698.066 110.663 698.563 110.888 698.563 111.095C698.563 111.303 699.186 111.472 699.947 111.472C700.709 111.472 701.431 111.634 701.555 111.832C702.112 112.732 717.592 113.529 718.423 112.698C718.654 112.467 719.444 112.276 720.173 112.276C720.905 112.276 721.501 112.095 721.501 111.873C721.501 111.653 721.834 111.472 722.245 111.472C724.939 111.472 729.549 106.86 729.549 104.165C729.549 103.757 729.73 103.422 729.952 103.422C730.174 103.422 730.355 102.709 730.355 101.838C730.355 100.964 730.536 100.138 730.756 100.003C731.022 99.8386 731.159 82.9103 731.159 50.5266V1.30143L730.254 1.05757C729.015 0.726775 717.273 0.738848 716.94 1.07205ZM749.077 1.99199C748.302 3.489 748.133 105.865 748.899 109.439L749.336 111.472H770.429H791.523V105.827V100.184L790.489 99.7903C789.898 99.5658 783.982 99.3992 776.606 99.3992C765.788 99.3992 763.755 99.3074 763.755 98.8293C763.755 98.5155 763.57 98.1967 763.34 98.1195C763.06 98.0253 763.075 97.5545 763.384 96.6683C763.669 95.8474 763.719 94.7898 763.516 93.8554C763.338 93.0296 763.181 85.0665 763.171 76.1593L763.152 59.9602H776.886H790.617L790.868 58.7022C791.006 58.0116 791.119 55.6985 791.119 53.5616C791.119 47.3949 792.375 47.8875 776.688 47.8875H763.509L763.606 30.8867C763.659 21.5352 763.714 13.6566 763.729 13.3814C763.751 12.9878 766.771 12.8767 777.424 12.8767C793.684 12.8767 792.179 13.548 791.757 6.4782C791.378 0.147287 793.886 0.80404 770.156 0.80404H749.691L749.077 1.99199ZM857.217 1.07447C856.848 1.22175 856.715 2.81052 856.715 7.077V12.8767H866.61H876.507L876.42 28.873C876.374 37.6716 876.357 59.8563 876.384 78.1706L876.435 111.472H883.251C887.068 111.472 890.171 111.305 890.301 111.093C890.432 110.885 890.538 88.7028 890.538 61.7952L890.54 12.8767H899.986H909.432V7.08666C909.432 1.36663 909.422 1.29178 908.5 1.05998C907.372 0.77748 857.932 0.789553 857.217 1.07447ZM150.06 12.4759C150.06 12.6956 150.514 12.8767 151.067 12.8767C151.62 12.8767 152.074 13.0578 152.074 13.2799C152.074 13.5021 152.342 13.6832 152.673 13.6832C153.303 13.6832 154.571 14.5935 155.652 15.8297C157.598 18.0487 158.103 18.7899 158.76 20.3835C159.156 21.3445 159.627 22.134 159.803 22.134C159.977 22.134 160.122 22.4069 160.122 22.7425C160.122 23.0781 160.281 23.6649 160.477 24.0512C161.353 25.7776 162.476 31.5411 162.804 36.0176C162.918 37.5653 163.178 39.0358 163.384 39.2845C163.908 39.9195 163.871 72.4699 163.345 72.9962C163.12 73.2184 162.939 74.4498 162.939 75.7295C162.939 77.0116 162.763 78.8298 162.548 79.7738C162.333 80.7179 161.838 83.0745 161.45 85.011C161.063 86.9474 160.605 88.5338 160.433 88.5338C160.262 88.5338 160.122 88.8839 160.122 89.3137C160.122 89.7435 159.941 90.207 159.718 90.3447C159.499 90.4799 159.318 90.9435 159.318 91.3733C159.318 91.803 159.173 92.1556 158.994 92.1556C158.818 92.1556 158.443 92.7954 158.159 93.5753C155.923 99.7662 143.176 103.084 139.149 98.5251C138.792 98.1195 138.374 97.7887 138.224 97.7887C137.806 97.7887 135.976 95.8643 135.976 95.4248C135.976 95.2124 135.827 94.9782 135.643 94.9057C135.182 94.7198 132.354 89.8111 132.354 89.1954C132.354 88.9201 132.188 88.5217 131.983 88.3116C131.596 87.9132 130.833 84.6753 130.471 81.8938C130.355 81.0077 130.097 80.1119 129.899 79.9018C129.701 79.6917 129.537 78.6849 129.537 77.6684C129.537 76.6494 129.372 75.645 129.17 75.4349C127.919 74.1335 127.921 37.4253 129.172 37.4253C129.372 37.4253 129.537 36.4402 129.537 35.2353C129.537 34.0305 129.718 32.9343 129.94 32.7966C130.162 32.6614 130.343 31.756 130.343 30.7853C130.343 29.8147 130.502 28.9237 130.698 28.803C130.894 28.6798 131.176 27.7696 131.326 26.7748C131.473 25.7824 131.768 24.8625 131.975 24.7345C132.183 24.6065 132.354 24.1454 132.354 23.7132C132.354 22.9984 132.859 21.8564 133.668 20.7457C134.554 19.5263 135.976 17.2374 135.976 17.0321C135.976 16.7231 138.106 14.8904 138.463 14.8904C138.613 14.8904 138.982 14.6635 139.284 14.3858C140.219 13.5262 141.563 12.8767 142.409 12.8767C142.855 12.8767 143.22 12.6956 143.22 12.4759C143.22 12.2393 144.628 12.0727 146.641 12.0727C148.653 12.0727 150.06 12.2393 150.06 12.4759ZM666.771 12.4759C666.771 12.6956 667.225 12.8767 667.778 12.8767C668.331 12.8767 668.784 13.0578 668.784 13.2799C668.784 13.5021 669.147 13.6832 669.589 13.6832C670.03 13.6832 670.393 13.8643 670.393 14.084C670.393 14.3061 670.581 14.4872 670.813 14.4872C671.747 14.4872 673.72 16.5565 674.662 18.5195C675.082 19.396 675.56 20.1131 675.726 20.1155C675.89 20.1179 676.028 20.4825 676.028 20.9268C676.028 21.3686 676.209 21.7308 676.429 21.7308C676.651 21.7308 676.832 22.0012 676.832 22.3345C676.832 22.6652 676.979 22.9381 677.158 22.9381C677.472 22.9381 678.24 26.2363 678.703 29.5781C678.827 30.4642 679.09 31.36 679.288 31.5701C679.486 31.7801 679.65 32.9922 679.65 34.2623C679.65 35.5323 679.831 36.684 680.051 36.8217C680.283 36.9641 680.454 39.0986 680.454 41.8511C680.454 44.6061 680.625 46.7382 680.857 46.883C681.106 47.0351 681.258 50.5676 681.258 56.1379C681.258 61.7083 681.106 65.2407 680.857 65.3929C680.625 65.5377 680.454 67.6505 680.454 70.3668C680.454 72.9648 680.287 75.2635 680.085 75.4735C679.882 75.6836 679.616 76.944 679.493 78.272C679.041 83.1373 678.759 84.912 678.433 84.912C678.247 84.912 677.972 85.9092 677.82 87.1309C677.668 88.3503 677.383 89.4465 677.187 89.5672C676.992 89.6879 676.832 90.1394 676.832 90.5692C676.832 90.999 676.695 91.3491 676.528 91.3491C676.361 91.3491 675.963 91.9383 675.644 92.6578C674.949 94.2297 674.775 94.4566 672.204 97.1368C668.567 100.93 661.507 101.746 656.697 98.9283C653.986 97.342 649.034 90.405 649.058 88.2319C649.063 87.9543 648.915 87.7273 648.729 87.7273C648.345 87.7273 647.491 84.05 647.186 81.0873C647.071 79.9815 646.815 78.9046 646.614 78.6945C646.411 78.4845 646.247 77.5428 646.247 76.606C646.247 75.6667 646.066 74.7854 645.846 74.6502C645.6 74.4981 645.443 71.3592 645.443 66.576C645.443 62.2733 645.301 58.7529 645.127 58.7529C644.953 58.7529 644.818 57.6663 644.825 56.3408C644.832 55.0128 644.975 53.9262 645.141 53.9262C645.308 53.9238 645.443 50.4952 645.443 46.3035C645.443 41.6556 645.6 38.5819 645.846 38.4322C646.066 38.2945 646.247 37.2997 646.247 36.218C646.247 35.1363 646.428 34.1415 646.65 34.0039C646.873 33.8687 647.054 32.8715 647.054 31.7922C647.054 30.7105 647.213 29.7278 647.409 29.607C647.604 29.4863 647.892 28.5422 648.046 27.5112C648.201 26.4802 648.478 25.3454 648.662 24.9929C648.845 24.6379 649.471 23.351 650.053 22.134C650.634 20.9147 651.33 19.565 651.595 19.1304C652.542 17.5971 656.586 13.6832 657.224 13.6832C657.581 13.6832 657.982 13.5021 658.12 13.2799C658.257 13.0578 658.721 12.8767 659.151 12.8767C659.578 12.8767 659.93 12.6956 659.93 12.4759C659.93 12.2393 661.338 12.0727 663.352 12.0727C665.363 12.0727 666.771 12.2393 666.771 12.4759ZM23.9008 13.2799C24.0384 13.5021 24.8642 13.6832 25.7358 13.6832C26.6075 13.6832 27.3222 13.8643 27.3222 14.084C27.3222 14.3061 27.5998 14.4872 27.9403 14.4872C29.2659 14.4872 32.2623 16.9621 32.7331 18.4446C32.8852 18.9251 33.1798 19.3163 33.3851 19.3163C33.5927 19.3163 33.7617 19.7581 33.7617 20.299C33.7617 20.8399 33.9428 21.3928 34.1625 21.5304C34.3847 21.6656 34.5658 22.4914 34.5658 23.3655C34.5658 24.2371 34.7469 24.9494 34.969 24.9494C35.2177 24.9494 35.3698 27.0887 35.3698 30.5608C35.3698 33.8663 35.2056 36.2736 34.969 36.4184C34.7469 36.5561 34.5658 37.5509 34.5658 38.6326C34.5658 39.7143 34.3847 40.7091 34.1625 40.8467C33.9428 40.9819 33.7617 41.4455 33.7617 41.8753C33.7617 42.3051 33.5806 42.6576 33.3585 42.6576C33.1364 42.6576 32.9553 42.9015 32.9553 43.1985C32.9553 43.8286 31.62 45.4705 31.0985 45.4826C30.9029 45.4874 30.2896 45.8448 29.7367 46.2794C29.1838 46.7116 28.3242 47.069 27.8244 47.0738C27.327 47.0786 26.9189 47.2694 26.9189 47.4963C26.9189 47.7643 24.7145 47.8706 20.5808 47.7981L14.2426 47.6871V30.2831V12.8767H18.9485C21.6504 12.8767 23.7583 13.0481 23.9008 13.2799ZM82.6561 13.2799C82.7913 13.5021 83.617 13.6832 84.4911 13.6832C85.3628 13.6832 86.075 13.8643 86.075 14.084C86.075 14.3061 86.3527 14.4872 86.6932 14.4872C88.096 14.4872 90.7399 16.7424 91.8868 18.9131C93.2172 21.4338 93.3187 21.7067 93.3187 22.7087C93.3187 23.252 93.4997 23.8073 93.7219 23.9449C93.9633 24.0946 94.1251 26.8255 94.1251 30.7853C94.1251 34.7452 93.9633 37.476 93.7219 37.6257C93.4997 37.7633 93.3187 38.2293 93.3187 38.6615C93.3187 39.0937 93.1496 39.7626 92.942 40.1465C92.7319 40.5304 92.2587 41.5831 91.8892 42.4813C91.5198 43.382 90.694 44.4685 90.0566 44.8959C89.4168 45.3257 88.8952 45.811 88.8928 45.9776C88.8928 46.1418 88.62 46.2794 88.2892 46.2794C87.956 46.2794 87.6855 46.4605 87.6855 46.6802C87.6855 46.9023 87.1519 47.0834 86.5024 47.0834C85.8505 47.0834 85.2058 47.2645 85.0706 47.4867C84.9209 47.7257 82.3832 47.8875 78.8073 47.8875H72.7951V30.3821V12.8767H77.6C80.3695 12.8767 82.5112 13.0481 82.6561 13.2799ZM540.611 13.2799C540.749 13.5021 541.473 13.6832 542.224 13.6832C543.562 13.6832 546.73 15.1005 547.763 16.1629C549.024 17.4571 550.472 19.6471 550.472 20.2604C550.472 20.625 550.653 20.9268 550.873 20.9268C551.095 20.9268 551.276 21.5594 551.276 22.3345C551.276 23.1095 551.457 23.7421 551.68 23.7421C551.933 23.7421 552.08 26.5599 552.08 31.389C552.08 36.218 551.933 39.0358 551.68 39.0358C551.457 39.0358 551.276 39.4825 551.276 40.0282C551.276 41.9743 548.111 46.2794 546.679 46.2794C546.331 46.2794 546.044 46.4605 546.044 46.6802C546.044 46.9023 545.593 47.0834 545.04 47.0834C544.487 47.0834 544.033 47.2645 544.033 47.4867C544.033 47.7378 541.686 47.8875 537.796 47.8875H531.557V30.3821V12.8767H535.961C538.462 12.8767 540.471 13.0506 540.611 13.2799ZM599.367 13.2799C599.502 13.5021 600.229 13.6832 600.977 13.6832C603.681 13.6832 609.201 17.7758 609.218 19.7944C609.223 20.171 609.406 20.5887 609.628 20.724C609.848 20.8616 610.029 21.4145 610.029 21.9554C610.029 22.4962 610.21 22.9381 610.432 22.9381C610.686 22.9381 610.836 25.7558 610.836 30.5849C610.836 35.414 610.686 38.2293 610.432 38.2293C610.21 38.2293 610.029 38.7726 610.029 39.4366C610.029 40.1006 609.848 40.6439 609.628 40.6439C609.406 40.6439 609.225 40.9457 609.225 41.3103C609.225 41.9719 607.344 44.7438 606.719 45.0069C606.54 45.0818 606.164 45.3522 605.883 45.6106C604.976 46.4388 603.623 47.0834 602.793 47.0834C602.346 47.0834 601.982 47.2645 601.982 47.4867C601.982 47.7354 599.767 47.8875 596.146 47.8875H590.312V30.3821V12.8767H594.714C597.215 12.8767 599.224 13.0506 599.367 13.2799ZM412.955 48.5877C414.015 48.6698 415.645 48.6698 416.577 48.5853C417.511 48.5008 416.647 48.4332 414.655 48.4332C412.663 48.4356 411.897 48.5032 412.955 48.5877ZM924.322 70.7483C923.105 70.8159 921.936 71.0429 921.726 71.2529C921.516 71.4606 921.036 71.632 920.657 71.632C919.894 71.632 916.767 73.1652 915.944 73.9451C915.651 74.2228 915.255 74.4474 915.065 74.4474C914.5 74.4474 910.315 78.8008 910.038 79.6773C909.895 80.1215 909.613 80.4837 909.405 80.4837C909.2 80.4837 909.031 80.8459 909.031 81.2902C909.031 81.732 908.893 82.0966 908.729 82.0966C908.338 82.1014 907.42 84.0765 907.42 84.912C907.42 85.2645 907.215 85.7595 906.964 86.0106C906.334 86.6432 906.322 96.0454 906.952 96.6756C907.21 96.9339 907.42 97.4337 907.42 97.7887C907.42 98.6241 908.338 100.599 908.729 100.602C908.893 100.604 909.031 100.969 909.031 101.41C909.031 101.852 909.212 102.215 909.432 102.215C909.654 102.215 909.835 102.478 909.835 102.801C909.835 103.122 910.289 103.84 910.842 104.392C911.395 104.945 911.846 105.588 911.846 105.819C911.846 106.051 911.991 106.24 912.165 106.24C912.339 106.24 913.283 106.964 914.261 107.85C915.239 108.734 916.274 109.458 916.559 109.458C916.844 109.458 917.078 109.637 917.078 109.857C917.078 110.076 917.808 110.371 918.696 110.513C919.587 110.656 920.413 110.929 920.531 111.122C920.649 111.315 921.178 111.472 921.707 111.472C922.233 111.472 922.777 111.653 922.914 111.873C923.052 112.097 924.921 112.276 927.14 112.276C929.356 112.276 931.225 112.097 931.365 111.873C931.5 111.653 932.135 111.472 932.773 111.472C933.41 111.472 934.031 111.31 934.154 111.115C934.275 110.919 935.009 110.639 935.786 110.492C936.564 110.347 937.199 110.098 937.199 109.941C937.199 109.784 937.735 109.419 938.389 109.13C939.748 108.526 943.638 105.001 943.638 104.371C943.638 104.139 944.001 103.622 944.442 103.221C944.887 102.821 945.249 102.248 945.249 101.951C945.249 101.654 945.408 101.41 945.606 101.41C945.802 101.41 946.089 100.732 946.246 99.9014C946.401 99.0708 946.671 98.2112 946.85 97.9891C947.026 97.7694 947.279 96.7722 947.415 95.7774C948.112 90.6054 948.154 89.741 947.712 89.741C947.427 89.741 947.26 88.8452 947.26 87.3265C947.26 85.9985 947.098 84.912 946.903 84.912C946.705 84.912 946.417 84.2383 946.265 83.415C946.111 82.594 945.638 81.4326 945.213 80.8386C944.79 80.2423 944.442 79.6362 944.442 79.4865C944.442 78.9915 939.616 74.5029 938.804 74.2445C938.365 74.1069 938.005 73.822 938.005 73.6168C938.005 73.4091 937.643 73.2401 937.199 73.2401C936.757 73.2401 936.395 73.059 936.395 72.8393C936.395 72.6171 936.033 72.4361 935.591 72.4361C935.146 72.4361 934.784 72.255 934.784 72.0328C934.784 71.8131 934.369 71.632 933.859 71.632C933.35 71.632 932.761 71.4678 932.551 71.2698C932.111 70.8545 927.577 70.5672 924.322 70.7483ZM929.458 76.42C929.842 76.6205 931.244 77.1178 932.572 77.5259C933.9 77.9364 935.361 78.6342 935.822 79.076C936.281 79.5179 937.216 80.3026 937.899 80.8193C938.582 81.336 939.36 82.2874 939.628 82.932C939.896 83.5791 940.272 84.1055 940.468 84.1055C940.661 84.1055 940.821 84.3808 940.821 84.7164C940.821 85.0496 941.031 85.7305 941.287 86.2255C941.542 86.7204 941.905 87.44 942.091 87.8239C942.574 88.8187 942.52 94.9709 942.028 94.9709C941.808 94.9709 941.627 95.4248 941.627 95.9778C941.627 96.5307 941.446 96.9846 941.224 96.9846C941.002 96.9846 940.821 97.3468 940.821 97.7887C940.821 98.2305 940.639 98.5927 940.42 98.5927C940.198 98.5927 940.017 98.7907 940.017 99.0322C940.017 99.276 939.662 99.9231 939.227 100.476L938.44 101.478L938.179 100.437C938.034 99.8652 937.756 99.3992 937.558 99.3992C937.361 99.3992 937.199 99.1601 937.199 98.8704C937.199 98.5807 936.837 97.9553 936.395 97.4796C935.953 97.004 935.591 96.4076 935.591 96.154C935.591 95.8981 935.062 95.024 934.415 94.2079L933.239 92.723L934.412 91.9358C935.059 91.5036 935.588 90.8469 935.588 90.4775C935.588 90.108 935.789 89.741 936.033 89.6589C936.293 89.572 936.474 88.4493 936.474 86.9233C936.474 85.3973 936.293 84.2745 936.033 84.1876C935.789 84.1055 935.591 83.7506 935.591 83.4005C935.591 82.5023 934.398 81.2902 933.517 81.2902C933.106 81.2902 932.773 81.1091 932.773 80.8869C932.773 80.6334 930.223 80.4837 925.933 80.4837H919.09V91.2839C919.09 103.741 918.757 102.473 921.975 102.217L924.522 102.014L924.725 98.1943C924.991 93.1407 926.838 92.7761 928.753 97.3975C929.026 98.0543 929.407 98.5927 929.603 98.5927C929.796 98.5927 929.955 98.8245 929.955 99.1094C929.955 99.3919 930.317 99.8845 930.762 100.203C931.203 100.522 931.566 101.106 931.566 101.5C931.566 102.118 931.95 102.215 934.383 102.215C935.931 102.215 937.196 102.352 937.191 102.516C937.179 102.9 934.555 104.692 932.973 105.394C932.309 105.689 931.452 106.09 931.068 106.285C930.095 106.78 923.919 106.742 923.919 106.24C923.919 106.017 923.499 105.836 922.982 105.836C922.415 105.836 921.847 105.472 921.548 104.912C920.881 103.663 919.517 102.835 918.993 103.359C918.575 103.777 916.675 103.166 916.675 102.615C916.675 102.463 916.359 101.963 915.973 101.507C915.584 101.048 914.951 100.295 914.562 99.829C914.176 99.3654 913.86 98.7545 913.86 98.4672C913.86 98.1822 913.674 97.7645 913.445 97.5352C912.86 96.9508 911.943 90.8179 912.302 89.9004C912.467 89.4803 912.715 88.2754 912.853 87.2251C912.991 86.1748 913.273 85.3128 913.481 85.3128C913.688 85.3128 913.86 84.9506 913.86 84.5087C913.86 84.0669 914.041 83.7047 914.261 83.7047C914.483 83.7047 914.664 83.5019 914.664 83.2556C914.664 80.235 926.377 74.8216 929.458 76.42ZM448.659 77.6201C448.659 78.0619 448.84 78.5376 449.062 78.6728C449.282 78.8104 449.463 78.5593 449.463 78.1175C449.463 77.6756 449.282 77.1999 449.062 77.0647C448.84 76.9271 448.659 77.1782 448.659 77.6201ZM434.292 81.2902C434.292 82.5071 434.367 83.0045 434.459 82.396C434.553 81.7876 434.553 80.7904 434.459 80.1819C434.367 79.5734 434.292 80.0708 434.292 81.2902ZM930.762 86.7784C930.762 87.9422 929.472 88.5096 926.937 88.4662C925.609 88.442 924.931 88.3454 925.428 88.2488C926.073 88.1257 926.333 87.7901 926.333 87.0971C926.333 86.1796 926.471 86.1192 928.547 86.1192C930.329 86.1192 930.762 86.2472 930.762 86.7784Z" fill="#8DC441"/>
</svg>
