<svg width="948" height="382" viewBox="0 0 948 382" fill="none" xmlns="http://www.w3.org/2000/svg">
<g clip-path="url(#clip0_5629_1334)">
<path d="M938.736 133.685C933.63 123.176 926.766 113.579 918.429 105.293C916.756 103.7 914.961 102.234 913.06 100.909C911.629 99.8206 910.137 98.8114 908.591 97.8862H908.271L907.867 97.6537C906.197 96.7636 904.479 95.9602 902.723 95.247H902.272C897.86 93.5372 893.159 92.6576 888.415 92.6542H886.447C881.231 92.9797 876.146 94.3517 871.511 96.7003C866.029 99.5546 860.998 103.173 856.574 107.443H856.302L856.029 107.711C855.856 107.906 855.662 108.082 855.448 108.234L854.595 109.025C851.56 111.827 848.514 114.861 844.981 118.408L842.48 120.965C839.308 124.079 836.163 127.218 833.044 130.383C834.016 113.803 835.059 96.8282 835.901 79.9809C835.901 77.83 836.126 75.5976 836.304 73.4815C836.932 66.1218 837.086 58.7155 836.754 51.3324V49.5303C836.304 41.1125 835.593 28.4276 827.034 17.5565C820.751 9.46424 808.209 0 784.335 0C778.932 0.0357553 773.538 0.431982 768.19 1.18594C759.403 2.40974 750.738 4.3623 742.288 7.0226C715.723 15.5799 700.384 28.9508 696.531 47.1235C693.71 60.5874 698.772 72.3072 702.079 80.0623L702.79 81.7366C705.789 88.5383 709.239 95.1307 713.127 101.479L716.351 107.141C724.58 121.821 732.914 136.444 741.352 151.009L728.549 146.626L725.289 145.486C720.548 143.777 716.351 142.324 712.451 141.092L711.384 140.789L710.626 140.568H709.903C704.01 138.633 697.859 137.555 691.647 137.371H690.675C685.774 137.351 680.919 138.304 676.403 140.173C671.4 142.243 666.919 145.335 663.245 149.254C662.021 150.67 660.858 152.137 659.76 153.648L659.499 153.997L659.226 154.393C656.966 157.764 655.12 161.386 653.726 165.182V165.45C649.929 176.422 648.038 187.941 648.131 199.528C636.727 155.66 599.339 123.233 555.229 123.233C539.219 123.283 523.508 127.496 509.698 135.441C501.915 128.985 492.129 125.308 481.941 125.013C471.752 124.717 461.762 127.82 453.604 133.813V110.734C453.328 99.108 448.467 88.04 440.041 79.8584C431.615 71.6767 420.283 67.0193 408.427 66.8659C396.411 66.909 384.903 71.6275 376.431 79.9853C367.958 88.3432 363.214 99.6572 363.239 111.443V159.392C362.112 157.937 360.905 156.544 359.624 155.218C346.616 141.854 330.243 132.092 312.16 126.918C293.947 121.893 274.672 121.909 256.469 126.965H255.983C241.305 130.736 227.733 137.828 216.354 147.672C212.76 140.264 207.091 134.012 200.008 129.647C192.926 125.282 184.723 122.985 176.358 123.023C172.114 123.023 167.906 123.628 163.84 124.814C141.471 131.441 132.521 152.765 127.069 165.485C126.571 166.671 126.12 167.775 125.646 168.822C124.295 171.984 123.003 174.786 121.971 177.03C120.932 179.204 119.975 181.414 119.102 183.657C118.474 185.366 117.941 186.541 117.324 188.041C113.591 180.607 109.817 173.193 106.004 165.799L103.751 161.148C98.1206 149.288 89.6686 131.488 68.6511 125.256C58.1734 122.115 46.8799 122.905 36.9618 127.47C27.0437 132.035 19.2081 140.051 14.9754 149.963C4.8164 173.519 17.4292 194.307 24.1861 205.458C29.0226 213.364 35.2342 223.828 41.0546 234.722C43.544 239.106 44.4923 240.954 49.9927 251.43L50.7987 252.883L57.7808 266.045C59.4404 269.068 61.266 272.533 63.4116 276.579C65.6994 280.962 68.2955 285.694 71.1524 290.961C70.6663 291.624 70.1685 292.322 69.5876 292.984L69.1846 293.461L68.5563 293.159C64.0955 290.936 59.3627 289.283 54.4735 288.241C51.0257 287.456 47.4982 287.058 43.9589 287.055C36.2154 287.052 28.6076 289.049 21.9008 292.845C15.194 296.642 9.62463 302.103 5.75288 308.681C1.88496 315.306 -0.100345 322.828 0.00390398 330.461C0.108153 338.095 2.29813 345.562 6.34558 352.084C19.7527 374.012 47.0884 381.999 68.3429 381.999C73.9736 382.023 79.6044 381.453 85.1047 380.29C132.841 370.117 153.503 325.005 168.582 292.066L171.616 285.439C174.726 278.449 177.962 271.514 181.325 264.638L184.324 258.185C187.373 267.786 191.847 276.895 197.601 285.218C201.157 290.403 205.128 295.298 209.502 299.833C213.948 304.286 218.784 308.343 223.953 311.983C229.169 315.54 234.74 318.61 240.549 321.145C246.476 323.865 252.675 325.912 259.065 327.295C262.977 328.237 266.96 328.958 270.966 329.434C274.641 329.818 278.316 329.981 282.014 329.923H285.274C298.524 329.937 311.677 327.71 324.156 323.342C329.893 321.482 335.453 319.098 340.752 316.238C350.172 310.872 357.906 303.069 363.109 293.682C364.486 304.385 369.781 314.232 378.009 321.391C386.236 328.55 396.836 332.532 407.835 332.597C417.519 332.597 426.932 329.516 434.684 323.819V337.69C434.684 349.441 439.444 360.712 447.916 369.021C456.388 377.331 467.879 381.999 479.861 381.999C491.842 381.999 503.333 377.331 511.805 369.021C520.277 360.712 525.037 349.441 525.037 337.69V325.586C534.568 328.842 544.596 330.504 554.696 330.493C607.743 330.493 650.904 284.16 650.999 227.211C652.09 230.665 653.595 233.978 655.468 237.094C658.313 241.489 662.036 245.268 666.433 248.186C672.751 252.321 680.132 254.618 687.724 254.814H691.209C697.115 254.675 702.984 253.852 708.694 252.36H709.642L734.37 246.872C730.482 252.139 726.676 257.267 723.013 262.359L720.951 265.208C717.964 269.242 715.403 272.8 713.127 276.218L712.499 277.184L712.048 277.846L711.835 278.149V278.462C708.289 283.525 705.514 289.067 703.596 294.914C702.031 299.864 701.546 305.081 702.174 310.227C702.861 315.482 704.699 320.54 707.532 325.051V325.272C708.563 326.853 709.725 328.388 710.887 329.655L711.159 329.923L711.384 330.225C712.629 331.678 714.016 333.039 715.415 334.353C717.051 335.945 718.817 337.41 720.69 338.748C729.533 344.677 739.206 349.328 749.401 352.56C758.09 355.397 767.111 357.095 776.239 357.606H778.847C780.34 357.621 781.832 357.548 783.316 357.385C785.177 357.234 787.026 356.99 788.851 356.641H789.658C791.531 356.211 793.392 355.676 795.205 355.06H795.478C800.496 353.232 805.067 350.392 808.897 346.724C812.575 343.049 815.451 338.677 817.349 333.876C819.512 328.123 820.81 322.091 821.202 315.971V315.18C821.228 314.917 821.228 314.652 821.202 314.389V313.378C821.593 308.994 821.782 304.96 821.996 300.216V293.473L823.525 296.182L825.268 299.391C827.686 303.774 829.737 307.46 831.882 310.971L832.427 311.843L832.913 312.634V312.901L833.151 313.25C836.576 318.459 840.761 323.133 845.574 327.156C849.426 330.702 853.99 333.411 858.993 335.097H859.265C863.142 336.376 867.208 337.027 871.297 337.027C872.566 337.027 873.834 336.945 875.091 336.806H875.506C877.426 336.597 879.334 336.283 881.231 335.841H882.025C883.863 335.376 885.676 334.783 887.443 334.097C889.553 333.318 891.592 332.388 893.571 331.33C901.576 326.944 908.948 321.528 915.49 315.226C923.212 307.936 929.838 299.606 935.168 290.485C937.224 286.85 938.79 282.969 939.826 278.939V278.195C940.267 276.375 940.595 274.531 940.81 272.672V272.091C941.314 266.878 940.704 261.619 939.02 256.651C937.256 251.74 934.448 247.254 930.782 243.489C926.449 239.076 921.496 235.294 916.071 232.257H915.75L915.395 232.048L914.684 231.653L913.783 231.072C910.215 229.014 906.232 226.688 902.023 224.677L898.538 222.828C892.979 219.785 887.355 216.858 881.67 214.05L906.184 208.481H907.133C914.094 207.191 920.807 204.837 927.024 201.505C933.752 198.068 939.353 192.836 943.181 186.413C945.694 181.937 947.223 176.995 947.65 171.891C949.618 156.055 942.825 142.057 938.759 133.685H938.736Z" fill="white" fill-opacity="0.96"/>
<path d="M753.953 219.654L768.711 216.306C769.02 216.236 769.541 216.119 770.158 215.922C774.234 214.85 777.727 212.268 779.901 208.719C782.074 205.171 782.759 200.934 781.81 196.9L781.751 196.645C781.263 194.712 780.411 192.886 779.238 191.261C777.585 189.204 775.54 187.482 773.216 186.192C770.48 184.663 767.617 183.364 764.657 182.309L748.476 176.507C739.396 173.193 730.316 169.973 721.141 166.822C715.202 164.752 710.164 162.927 705.789 161.59C704.957 161.364 704.131 161.116 703.312 160.846C698.025 159.264 694.303 158.602 691.161 158.578C689.062 158.502 686.97 158.875 685.033 159.671C683.008 160.531 681.191 161.799 679.698 163.392C678.958 164.216 678.262 165.078 677.612 165.973C676.349 167.876 675.307 169.912 674.506 172.042C671.5 180.751 670.001 189.892 670.073 199.086C670.132 207.388 670.357 218.05 675.016 225.281C676.142 227.142 677.648 228.746 679.438 229.99C682.757 232.234 686.1 232.537 689.597 232.781C694.812 233.141 699.85 231.897 704.888 230.746L753.917 219.642L753.953 219.654ZM918.607 142.812C914.579 134.518 909.161 126.945 902.581 120.407C901.73 119.576 900.819 118.807 899.854 118.105C898.963 117.45 898.037 116.84 897.08 116.28C896.095 115.751 895.082 115.273 894.045 114.85C891.999 114.061 889.805 113.704 887.609 113.803C885.51 113.92 883.46 114.501 881.599 115.466C878.789 116.838 875.743 119.047 871.689 122.733C871.131 123.279 870.432 123.896 869.792 124.477C866.461 127.558 862.739 131.36 858.317 135.778C851.477 142.557 844.756 149.37 838.058 156.241L826.086 168.426C823.899 170.649 821.909 173.048 820.135 175.6C818.616 177.759 817.541 180.188 816.97 182.751C816.649 184.719 816.697 186.729 817.112 188.68L817.171 188.936C818.117 192.965 820.621 196.477 824.154 198.733C827.687 200.988 831.975 201.811 836.114 201.028C836.612 200.959 837.107 200.866 837.596 200.749L901.395 186.285C906.433 185.146 911.53 184.099 916.047 181.518C919.082 179.809 921.962 178.1 923.942 174.658C924.996 172.763 925.634 170.671 925.815 168.519C926.799 159.985 922.258 150.3 918.607 142.812ZM804.392 169.124C809.016 163.427 809.016 154.939 809.419 147.986C810.817 124.791 812.275 101.595 813.449 78.3881C813.888 69.5983 814.848 60.9247 814.314 52.065C813.876 44.7634 813.828 36.3688 809.122 30.3694C800.824 19.7889 783.114 20.661 771.035 22.312C767.308 22.8168 763.61 23.4997 759.951 24.3583C756.276 25.2187 752.625 26.1605 749.069 27.2883C737.476 31.0088 721.176 37.8454 718.426 50.9488C716.861 58.3551 720.56 65.9242 723.405 72.691C726.878 80.8763 731.608 88.2593 735.923 95.9679C747.338 116.326 758.955 136.569 770.537 156.823C774.01 162.869 777.768 170.519 784.466 173.658C784.916 173.844 785.366 174.007 785.829 174.158C788.828 175.274 792.111 175.484 795.229 174.775L795.786 174.658C798.679 173.879 801.287 172.333 803.337 170.205C803.717 169.856 804.049 169.508 804.392 169.124ZM798.856 231.223C797.052 228.733 794.491 226.867 791.54 225.892C788.589 224.917 785.399 224.882 782.427 225.793C781.727 226.019 781.046 226.295 780.388 226.619C779.369 227.128 778.397 227.723 777.483 228.397C774.874 230.414 772.543 232.755 770.549 235.362C770.039 236.001 769.565 236.85 768.948 237.408L758.683 251.244C752.874 259.011 747.125 266.789 741.447 274.684C737.725 279.788 734.524 284.102 731.975 287.904C731.501 288.624 731.003 289.415 730.553 290.066C727.506 294.67 725.787 298.042 724.898 301.042C724.234 303.035 724.024 305.146 724.282 307.227C724.566 309.39 725.313 311.471 726.463 313.343C727.079 314.273 727.743 315.18 728.455 316.052C729.991 317.786 731.72 319.346 733.611 320.703C740.7 325.54 748.453 329.016 756.608 331.702C763.401 333.911 770.454 335.236 777.59 335.632C778.811 335.69 780.032 335.667 781.241 335.562C782.362 335.459 783.478 335.304 784.584 335.097C785.691 334.844 786.783 334.534 787.856 334.167C789.942 333.4 791.84 332.212 793.427 330.679C794.933 329.202 796.094 327.423 796.818 325.458C798.003 322.551 798.785 318.877 799.307 313.413C799.343 312.634 799.461 311.704 799.544 310.855C799.947 306.32 800.137 300.972 800.421 294.717C800.931 285.078 801.322 275.486 801.63 265.871L802.294 248.756C802.448 244.826 802.318 240.454 801.204 236.536C800.714 234.654 799.921 232.86 798.856 231.223ZM914.707 257.999C912.574 255.686 909.539 253.395 904.75 250.558C904.062 250.174 903.244 249.675 902.498 249.233C898.515 246.872 893.714 244.408 888.107 241.419C879.489 236.769 870.871 232.258 862.158 227.77L846.783 219.77C845.989 219.538 845.183 218.98 844.424 218.619C841.468 217.138 838.328 216.04 835.083 215.352C833.965 215.14 832.831 215.024 831.693 215.003C830.956 215 830.219 215.042 829.488 215.131C826.41 215.597 823.561 217.005 821.347 219.154C819.133 221.302 817.667 224.081 817.159 227.095C816.934 229.014 817.005 230.955 817.385 232.839C818.131 236.862 819.957 240.826 821.854 244.303L830.057 259.406C834.632 267.917 839.256 276.381 843.997 284.822C847.056 290.322 849.604 295.031 851.987 298.937C852.437 299.67 852.947 300.46 853.338 301.146C856.243 305.832 858.566 308.785 860.925 310.913C862.496 312.395 864.382 313.519 866.448 314.202C868.514 314.885 870.708 315.112 872.874 314.866C874.002 314.731 875.122 314.537 876.229 314.285C878.496 313.689 880.688 312.843 882.76 311.762C889 308.331 894.751 304.109 899.866 299.205C906.006 293.275 911.436 286.811 915.656 279.416C916.248 278.37 916.746 277.288 917.173 276.16C917.57 275.128 917.914 274.076 918.204 273.01C918.453 271.917 918.643 270.824 918.773 269.719C918.986 267.548 918.732 265.358 918.027 263.29C917.331 261.305 916.197 259.494 914.707 257.988V257.999Z" fill="#FF1A1A"/>
<path fill-rule="evenodd" clip-rule="evenodd" d="M385.239 111.141C385.239 98.7002 395.564 88.5383 408.034 88.5383C420.327 88.5383 430.308 98.7002 430.842 111.327V287.752C430.842 300.193 420.505 310.355 408.034 310.355C405.02 310.354 402.036 309.766 399.255 308.627C396.474 307.487 393.95 305.819 391.83 303.717C389.711 301.615 388.037 299.122 386.905 296.382C385.774 293.642 385.208 290.709 385.239 287.752V111.141ZM364.032 220.119C363.854 223.619 362.965 230.107 358.342 234.839C353.351 239.92 346.582 241.14 342.659 241.14C326.359 241.233 310.06 241.28 293.76 241.315C277.461 241.361 261.161 241.408 244.862 241.489C246.284 245.873 249.129 252.535 255.542 258.662C259.454 262.348 263.2 264.441 264.812 265.324C266.768 266.545 273.537 270.056 281.906 270.056C290.82 270.056 298.656 267.243 306.326 263.394L306.954 263.069C312.288 260.36 317.777 257.569 323.597 256.558C329.287 255.686 335.357 256.732 339.802 260.592C345.148 265.15 347.294 271.8 345.326 278.637C343.014 286.345 336.423 293.008 329.477 297.031C325.501 299.313 321.328 301.246 317.006 302.809C305.981 306.646 294.322 308.432 282.629 308.076C279.784 308.076 276.749 308.076 273.715 307.727C270.514 307.378 267.314 306.669 264.279 305.972C259.359 304.925 254.575 303.338 250.018 301.239C245.46 299.257 241.105 296.851 237.014 294.054C232.934 291.178 229.122 287.952 225.622 284.415C222.142 280.835 218.982 276.968 216.175 272.858C206.561 258.488 202.104 240.792 202.993 223.619C203.704 206.806 209.406 189.982 219.743 176.321C220.857 174.6 222.149 173.147 223.37 171.775C223.904 171.17 224.425 170.589 224.911 170.007C237.666 154.707 254.713 149.87 261.742 147.87L262.133 147.754C276.4 143.78 291.513 143.78 305.78 147.754C309.171 148.637 328.232 154.416 343.014 170.007C343.726 170.705 345.693 172.984 348.183 176.321C354.506 184.766 359.15 194.303 361.874 204.435L361.898 204.528C362.965 208.376 364.032 213.643 364.032 220.119ZM259.466 191.215C252.432 196.825 247.537 204.601 245.573 213.283H323.242C321.146 204.609 316.202 196.851 309.171 191.203C302.088 185.633 293.307 182.55 284.229 182.448C275.2 182.536 266.466 185.622 259.454 191.203L259.466 191.215ZM554.825 144.777C534.519 144.777 515.99 153.718 502.809 168.263V167.729C502.544 161.888 499.95 156.382 495.586 152.399C491.222 148.416 485.437 146.275 479.478 146.437C473.519 146.598 467.864 149.05 463.731 153.264C459.598 157.477 457.318 163.115 457.383 168.961V337.329C457.369 340.273 457.949 343.191 459.09 345.915C460.23 348.638 461.909 351.114 464.029 353.198C466.148 355.283 468.668 356.936 471.442 358.061C474.215 359.187 477.189 359.763 480.191 359.757C483.192 359.762 486.164 359.184 488.936 358.058C491.709 356.932 494.227 355.279 496.345 353.194C498.464 351.11 500.142 348.635 501.281 345.912C502.421 343.189 503 340.272 502.986 337.329V284.764C516.168 299.135 534.518 308.25 555.003 308.25C595.805 308.25 628.937 271.975 628.937 226.77C628.759 181.576 595.627 144.777 554.825 144.777ZM544.855 271.626C521.692 271.626 502.809 251.825 502.809 227.13C502.809 202.249 521.514 182.448 544.855 182.448C568.007 182.448 586.89 202.249 586.89 227.13C586.712 251.825 568.007 271.626 544.855 271.626ZM168.793 238.513L161.314 254.639C157.923 261.638 154.533 268.824 151.332 276.009L148.238 282.753C133.99 313.82 117.097 350.7 80.2547 358.525C62.4378 362.385 35.5407 357.13 25.5595 340.654C15.5901 324.016 30.3723 304.914 49.4338 309.297C52.4448 309.948 55.3965 311.39 58.3837 312.855C63.3506 315.296 68.3886 317.75 73.8415 316.657C79.01 315.785 82.2106 312.099 86.3121 307.367C92.0021 300.891 94.5034 294.054 95.5702 290.02L95.3095 289.415C95.2269 289.206 95.1359 289.001 95.0368 288.799C90.4018 280.311 86.3477 272.73 82.9693 266.394C81.0699 262.816 79.1535 259.246 77.22 255.686L69.4555 241.222C63.7655 230.641 62.8172 228.897 60.3041 224.328C54.7638 214.072 48.9413 203.964 42.8429 194.017C36.252 183.146 29.4832 171.066 35.0073 158.264C37.0836 153.308 40.9824 149.298 45.9312 147.028C50.88 144.758 56.5175 144.395 61.7266 146.01C73.1896 149.416 78.275 160.125 83.0167 170.124C83.882 171.938 84.7237 173.728 85.6009 175.437C93.2587 190.331 100.739 205.225 108.219 220.119C108.882 221.596 109.878 223.607 111.111 226.072C112.202 228.258 113.47 230.804 114.81 233.606L116.789 237.652C117.56 239.234 118.235 240.582 118.733 241.664C122.207 233.176 125.727 224.723 129.236 216.259C132.757 207.806 136.277 199.354 139.751 190.854C139.846 190.389 140.675 188.576 141.932 185.843C142.987 183.529 144.338 180.565 145.808 177.193L147.314 173.623C151.937 162.578 157.508 149.288 169.86 145.661C174.245 144.413 178.916 144.535 183.226 146.01C187.537 147.485 191.272 150.24 193.912 153.893C196.58 157.567 197.647 161.776 197.824 165.985C197.967 175.286 193.391 185.262 189.455 193.819C188.507 195.912 187.582 197.912 186.788 199.795L186.314 200.819C185.223 203.225 182.26 209.736 177.163 220.468C175.325 224.305 173.559 228.165 171.769 232.06L168.793 238.513Z" fill="black"/>
</g>
<defs>
<clipPath id="clip0_5629_1334">
<rect width="948" height="382" fill="white"/>
</clipPath>
</defs>
</svg>
