<svg width="52" height="52" viewBox="0 0 52 52" fill="none" xmlns="http://www.w3.org/2000/svg">
<path d="M26.5156 0C29.8713 0.000492845 31.646 5.09534 32.5088 11.1416C37.5039 7.74237 42.4087 5.63992 44.749 7.97949C47.1216 10.3528 44.7729 15.2101 41.1074 20.0957C47.0439 21.2241 51.9998 23.2059 52 26.5156C51.9995 29.8715 46.904 31.646 40.8574 32.5088C44.257 37.5043 46.3598 42.4097 44.0195 44.75C41.6459 47.1221 36.7881 44.7732 31.9023 41.1074C30.7739 47.0438 28.7939 51.9996 25.4844 52C22.1285 51.9995 20.353 46.9042 19.4902 40.8574C14.4949 44.2568 9.59023 46.3606 7.25 44.0205C4.87737 41.6472 7.22599 36.789 10.8916 31.9033C4.95542 30.7749 0.000161809 28.7939 0 25.4844C0.000492894 22.1286 5.0952 20.353 11.1416 19.4902C7.74255 14.4953 5.63998 9.59125 7.97949 7.25098C10.3527 4.87845 15.2102 7.22626 20.0957 10.8916C21.2242 4.95534 23.206 0 26.5156 0Z" fill="#3C5FDD"/>
<path d="M26.4707 14.1055C26.4693 13.892 26.4724 13.6837 26.4794 13.4814C26.4794 13.693 26.4764 13.901 26.4707 14.1055C26.4994 18.6647 28.5537 25.5743 38.0991 25.9811C38.413 25.9722 38.7138 25.9789 38.998 26C38.6912 26 38.3917 25.9936 38.0991 25.9811C33.6263 26.1081 26.4794 29.4034 26.4794 39.4813C26.3189 35.3085 23.9758 26 13.9609 26C18.2122 26 26.1708 24.7024 26.4707 14.1055Z" fill="white"/>
</svg>
