<svg width="53" height="51" viewBox="0 0 53 51" fill="none" xmlns="http://www.w3.org/2000/svg">
<path d="M26.5273 12.243V24.486C27.7176 26.0164 32.3428 28.1589 41.321 24.486C50.2991 20.8131 52.5437 14.1134 52.5437 11.2227V0H40.3007C31.7306 0 27.5476 8.16199 26.5273 12.243Z" fill="#B19BC4"/>
<path d="M26.0156 12.243V24.486C24.8253 26.0164 20.2002 28.1589 11.222 24.486C2.24382 20.8131 -0.000728607 14.1134 -0.000728607 11.2227V0H12.2423C20.8124 0 24.9954 8.16199 26.0156 12.243Z" fill="#B19BC4"/>
<path d="M26.5273 38.757V26.514C27.7176 24.9836 32.3428 22.8411 41.321 26.514C50.2991 30.1869 52.5437 36.8866 52.5437 39.7773V51H40.3007C31.7306 51 27.5476 42.838 26.5273 38.757Z" fill="#B19BC4"/>
<path d="M26.0156 38.757V26.514C24.8253 24.9836 20.2002 22.8411 11.222 26.514C2.24382 30.1869 -0.000728607 36.8866 -0.000728607 39.7773V51H12.2423C20.8124 51 24.9954 42.838 26.0156 38.757Z" fill="#B19BC4"/>
</svg>
